<svg xmlns="http://www.w3.org/2000/svg" version="1.1" width="800px" height="800px" xlink="http://www.w3.org/1999/xlink" style="overflow:hidden!important;"><g id="svga-group-wrapper" transform="scale(4 4)"><g id="svga-group-backs-single"></g><g id="svga-group-subwrapper" ><g id="svga-group-hair-back" ><path id="SvgjsPath3439" d="M100.5,100.5h-1v-1h1V100.5z" fill="#2a232b" stroke-width="none" opacity="1"></path></g><g id="svga-group-humanbody-single"><path id="SvgjsPath2893" d="M195.417 199.778c-2.196-4.746-8.195-11.779-14.86-13.722 -8.239-2.403-26.837-5.308-33.733-6.923 -5.528-1.296-16.662-11.294-20.564-14.65 -0.7-0.6-1.273-1.839-1.287-2.76 -0.139-10.864 4.195-39.724 4.195-39.724H100 70.833c0 0 4.334 28.859 4.193 39.724 -0.011 0.921-0.587 2.16-1.285 2.76 -3.902 3.356-15.036 13.354-20.564 14.65 -6.897 1.615-25.495 4.619-33.733 7.022 -6.667 1.942-12.664 8.876-14.86 13.622 -3.708 8.008-4.584 22.5-4.584 35h100 100C200 222.278 199.123 207.786 195.417 199.778z" fill="#ffd0bc" stroke-width="none" opacity="1" stroke="none"></path><path id="SvgjsPath2894" d="M159.156 184.058c24.342 3.542 34.586 8.708 37.794 50.721H200c0-12.5-0.877-26.992-4.583-35 -2.196-4.746-8.195-11.779-14.86-13.722 -8.239-2.403-26.837-5.308-33.733-6.923 -5.528-1.296-18.242-12.069-21.643-16.35 3.36 4.704 12.791 15.605 21.054 18.46C150.188 182.61 153.48 183.232 159.156 184.058zM53.766 181.244c8.263-2.854 17.693-13.756 21.054-18.46 -3.4 4.28-16.114 15.054-21.643 16.35 -6.896 1.615-25.494 4.619-33.733 7.022 -6.665 1.942-12.664 8.876-14.86 13.622 -3.706 8.008-4.583 22.5-4.583 35h3.05c3.188-41.744 13.475-47.183 37.794-50.721C46.52 183.232 49.813 182.61 53.766 181.244z" fill="#ffe2d6" stroke-width="none" opacity="1" stroke="none"></path><path id="SvgjsPath2895" d="M95.646 197.62c0 0-5.074-1.609-7.083-2.379 -10.449-4.009-44.395-6.607-44.395-6.607s35.754 1.419 43.644 2.779c-0.458-4.767-3.017-20.004-3.017-20.004s5.149 16.815 6.409 21.057C91.878 194.734 95.646 197.62 95.646 197.62zM106.445 196.278c-0.089 0.073-0.191 0.168-0.302 0.268C106.256 196.461 106.358 196.372 106.445 196.278zM95.646 197.62c0 0 2.893 2.992 4.347 3.03 1.91 0.051 4.828-2.899 6.151-4.104 -1.265 0.957-4.159 1.391-5.31 1.436C99.504 198.033 95.646 197.62 95.646 197.62zM116.664 190.101c-1.545 0.248-4.386 0.789-4.386 0.789l2.287-14.89c-0.646 3.071-4.474 16.211-8.12 20.278 1.91-1.616 6.158-2.391 8.324-2.704 10.236-1.484 10.232-1.483 41.062-4.94C155.831 188.634 126.76 188.479 116.664 190.101z" fill="#f0b399" stroke-width="none" opacity="1" stroke="none"></path><path id="SvgjsPath2896" d="M195.417 199.778c-2.196-4.746-8.195-11.779-14.86-13.722 -8.239-2.403-26.837-5.308-33.733-6.923 -5.528-1.296-16.662-11.294-20.564-14.65 -0.7-0.6-1.273-1.839-1.287-2.76 -0.139-10.864 4.195-39.724 4.195-39.724H100 70.833c0 0 4.334 28.859 4.193 39.724 -0.011 0.921-0.587 2.16-1.285 2.76 -3.902 3.356-15.036 13.354-20.564 14.65 -6.897 1.615-25.495 4.619-33.733 7.022 -6.667 1.942-12.664 8.876-14.86 13.622 -3.708 8.008-4.584 22.5-4.584 35h100 100C200 222.278 199.123 207.786 195.417 199.778z" fill="none" stroke="#d17f5b" stroke-width="1.5" opacity="1"></path></g><g id="svga-group-chinshadow-single"><path id="SvgjsPath3057" d="M100.021 171.866c8.183 0 16.871-4.943 24.199-10.675 -0.001-6.702 1.451-19.105 2.652-28.205 -15.382-2.247-38.406-2.279-53.766-0.152 1.184 8.96 2.625 21.206 2.671 28.02C83.119 166.767 91.822 171.866 100.021 171.866z" fill="url(#SvgjsLinearGradient3058)" opacity="1"></path></g><g id="svga-group-clothes-single" ><path id="SvgjsPath3473" d="M128.857 237.978H70.72v-56.183c22.25 4.699 36.88 4.337 58.138 0V237.978z" fill="#f3f1f3" stroke-width="none" opacity="1"></path><path id="SvgjsPath3474" d="M107.44 237.709c-2.775 0-10.727 0.208-16.512-0.23l-0.01-0.171c-0.818-18.658 1.129-30.719 4.537-39.288l0.048-0.123 -0.093-0.093c-0.905-0.904-2.425-1.935-4.034-3.025 -1.611-1.093-3.275-2.221-4.336-3.246 0.625-0.732 1.395-1.454 2.348-2.201 0.245-0.125 1.162-0.843 5.974-4.971 0.214-0.184 0.345-0.296 0.362-0.31 0.818-0.178 2.138-0.293 3.738-0.293 2.183 0 4.731 0.221 6.512 0.563 1.561 1.458 3.451 5.329 4.158 7.17 -0.976 2.291-2.128 3.129-3.717 4.284 -0.774 0.563-1.652 1.201-2.652 2.112l-0.083 0.075 0.021 0.111c4.026 20.31 4.027 25.054 4.027 29.642 0.001 2.021 0.001 6.609 0.339 9.985C107.917 237.707 107.704 237.709 107.44 237.709z" fill="#131111" stroke-width="none" opacity="1"></path><path id="SvgjsPath3475" d="M110.35 191.495c-0.754-1.995-2.71-5.93-4.28-7.359 -2.876-0.563-7.983-0.843-10.47-0.24 -0.108 0.088-6.248 5.383-6.31 5.26 -0.906 0.708-1.788 1.504-2.52 2.39 2.061 2.076 6.655 4.556 8.5 6.4 -3.65 9.18-5.33 21.59-4.55 39.38 0.01 0.11 0.01 0.23 0.02 0.34 6.756 0.52 16.55 0.331 17.55 0.223 -1.16-11.307 1.438-10.455-4.39-39.853C106.968 195.241 108.865 195.04 110.35 191.495zM105.1 210.535c-0.021-0.05-0.04-0.1-0.051-0.13 2 10.55 1.38 18.632 2.891 26.972 -4.736-0.318-12.014-0.052-16.771-0.052 0.369-7.198 1.188-31.684 4.74-39.74 0.17-0.046 0.339-0.084 0.509-0.125l-1.032 34.736 2.747-35.066c0.02-0.002 0.04-0.005 0.06-0.008l1.801 32.605 0.417-32.734c0.026 0.001 0.051-0.001 0.077 0l4.199 36.355 -2.3-36.137c0.314 0.063 0.629 0.141 0.942 0.233 0.03 0 0.07 0.01 0.1 0.03C103.533 198.476 104.365 205.876 105.1 210.535zM104.219 196.726c-2.774-1.251-6.363-1.026-9.129 0.24 -1.681-1.813-4.08-3.077-7.53-5.391 0.55-0.479 1.26-1.07 2.21-1.81 0.08 0 3.48-2.771 3.54-2.83 0.92-0.84 1.74-1.79 2.52-2.62 2.93-0.12 7.23 0.02 9.82 0.14 1.5 1.876 2.931 4.696 4.01 6.94C107.699 194.266 105.759 195.545 104.219 196.726z" fill="#000000" stroke-width="none" opacity="1"></path><path id="SvgjsPath3476" d="M78.196 213.077c-11.534-40.071-6.325-29.581-9.399-45.32 2.028-4.813 3.958-10.44 5.042-11.598l0.08-0.086c2.292 24.007 8.958 13.636 23.784 27.722C89.228 189.449 81.372 204.127 78.196 213.077zM131.193 167.758c-1.448-3.702-4.077-9.127-5.215-10.331 1.424 20.678-15.146 16.551-24.35 26.2 8.812 5.713 17.173 20.66 20.172 29.455C134.92 169.568 127.85 188.673 131.193 167.758z" fill="#f3f1f4" stroke-width="none" opacity="1"></path><path id="SvgjsPath3477" d="M125.801 156.967c0 5.137-0.42 9.162-1.262 10.339 -2.443 5.809-13.103 9.853-16.39 11.51 -2.495 1.227-4.942 2.809-6.83 4.85 3.813 2.476 5.705 3.383 12.93 14.44 4.246 7.109 6.539 12.448 7.561 15.64 13.378-44.331 6.222-24.978 9.59-46.01C129.814 163.65 126.801 157.885 125.801 156.967zM129.449 176.495c-1.957 18.078-3.491 14.485-7.74 34.181 -2.716-8.644-11.075-22.913-19.43-27.091 3.937-2.957 5.031-3.131 9.729-5.279 14.396-6.42 14.985-12.385 14.138-20.271 1.207 1.423 3.125 6.161 4.692 9.521C129.979 170.702 129.589 175.194 129.449 176.495zM79.199 171.896c-4.408-3.649-3.16-8.162-5.189-16.215 -0.902 1-3.146 6.632-5.42 12.055 0.557 2.796 0.681 7.389 0.76 8.84 0.559 12.202 1.75 12.765 8.83 37.16 3.031-8.905 11.558-24.37 20.24-30.009C91.489 177.401 82.765 174.999 79.199 171.896zM84.659 197.405c-2.221 3.666-4.517 7.48-6.37 13.28 -4.442-20.269-5.999-16.964-7.73-34.16 -0.32-2.971-0.617-6.027-1.4-8.96 1.638-3.588 3.981-10.281 4.731-10.995 1.366 7.078 0.066 13.462 5.669 16.995 2.621 1.996 11.104 5.32 17.52 10.36C93.188 186.235 91.094 187.596 84.659 197.405z" fill="#cfc8d7" stroke-width="none" opacity="1"></path><path id="SvgjsPath3478" d="M120.319 209.824l-1.209-2.654c0 0 9.148-28.175 10.743-36.225C130.765 179.299 120.319 209.824 120.319 209.824zM78.879 208.721l1.436-3.259c0 0-8.573-26.467-10.168-34.517C69.235 179.299 78.879 208.721 78.879 208.721z" fill="#e1e0e1" stroke-width="none" opacity="1"></path><path id="SvgjsPath3479" d="M124.787 195.605c7.065-20.834 2.756-22.551 6.305-29.469 0.134-0.261 1.396 1.046 1.533 1.64 1.306 5.658 53.349 17.338 54.994 18.598 1.456 1.058 5.65 3.137 5.65 3.137 4.937 9.07 7.762 10.698 9.15 34.984 0.13 3.083-0.061 11.801-0.061 14.141l-85.559-0.676C117.004 230.169 117.999 216.15 124.787 195.605zM75.213 195.605c-7.065-20.834-2.756-22.551-6.305-29.469 -0.134-0.261-1.396 1.046-1.533 1.64 -1.306 5.658-53.349 17.338-54.994 18.598 -1.456 1.058-5.65 3.137-5.65 3.137 -4.937 9.07-7.762 10.698-9.15 34.984 -0.13 3.083 0.061 11.801 0.061 14.141l85.559-0.676C82.996 230.169 82.001 216.15 75.213 195.605z" fill="#152c5e" stroke-width="none" opacity="1" stroke="none"></path><path id="SvgjsPath3480" d="M130.307 190c-4.552 16.387-10.771 31.116-13.506 47.96 -0.89-0.007 1.491-22.695 7.986-42.354 7.065-20.834 2.756-22.551 6.305-29.469 0.077-0.15-0.619 1.976-0.223 2.432C130.723 176.296 132.625 182.272 130.307 190zM69.693 190c4.552 16.387 10.771 31.116 13.506 47.96 0.89-0.007-1.491-22.695-7.986-42.354 -7.065-20.834-2.756-22.551-6.305-29.469 -0.077-0.15 0.619 1.976 0.223 2.432C69.277 176.296 67.375 182.272 69.693 190z" fill="#0a1f4f" stroke-width="none" opacity="1" stroke="none"></path><path id="SvgjsPath3481" d="M152.436 186.031c0 0-2.284 2.561-8.636 6.923 5.313-5.885 7.761-8.249 7.761-8.249L152.436 186.031zM154.611 197.906l-1.528-1.367c-4.538 13.781-7.571 20.587-12.828 36.618C147.799 218.831 149.599 213.745 154.611 197.906zM48.439 184.705c0 0 2.447 2.364 7.761 8.249 -6.352-4.362-8.636-6.923-8.636-6.923L48.439 184.705zM59.745 233.157c-5.257-16.031-8.29-22.837-12.828-36.618l-1.528 1.367C50.401 213.745 52.201 218.831 59.745 233.157z" fill="#01153f" stroke-width="none" opacity="1" stroke="none"></path><path id="SvgjsPath3482" d="M179.409 219.335c0-11.596 3.11-18.351 9.615-28.142 0.608 0.372 0.931 0.543 1.345 0.875C183.452 200.651 182.078 208.659 179.409 219.335zM141.312 230.703c6.113-16.703 8.06-23.228 12.107-34.388 -1.15-0.351-8.671-2.985-9.819-3.346 0.41 1 3.113 1.822 7.822 4.709C151.422 197.679 146.333 213.082 141.312 230.703zM149.533 184.577c0 0-3.352 4.14-6.664 8.328 3.388-2.67 5.748-5.644 8.691-8.2 -3.994-3.368-10.511-8.524-14.721-12.089C140.163 176.188 149.533 184.577 149.533 184.577zM202.073 238.634l0.286 0.002c0-2.34 0.19-11.058 0.061-14.141 -1.389-24.286-4.214-25.914-9.15-34.984 0 0-4.194-2.079-5.65-3.137 -1.334-1.021-38.794-9.922-52.49-15.88 16.011 10.971 46.282 15.027 55.24 21.574C194.702 195.235 200.535 222.337 202.073 238.634zM9.613 192.037c0.542-0.383 0.619-0.366 1.168-0.729 6.505 9.791 9.809 16.431 9.809 28.026C17.922 208.659 16.08 200.318 9.613 192.037zM48.578 197.679c4.709-2.887 7.412-3.709 7.822-4.709 -1.148 0.36-8.669 2.995-9.819 3.346 4.048 11.16 5.994 17.685 12.107 34.388C53.667 213.082 48.578 197.679 48.578 197.679zM63.16 172.616c-4.21 3.564-10.727 8.721-14.721 12.089 2.943 2.557 5.304 5.53 8.691 8.2 -3.313-4.188-6.664-8.328-6.664-8.328S59.837 176.188 63.16 172.616zM9.631 192.068c8.958-6.547 39.229-10.604 55.24-21.574 -13.696 5.958-51.156 14.858-52.49 15.88 -1.456 1.058-5.65 3.137-5.65 3.137 -4.937 9.07-7.762 10.698-9.15 34.984 -0.13 3.083 0.061 11.801 0.061 14.141l0.286-0.002C-0.535 222.337 5.298 195.235 9.631 192.068z" fill="#233b6d" stroke-width="none" opacity="1" stroke="none"></path><path id="SvgjsPath3483" d="M132.246 166.374c-0.049-0.293-0.443-0.634-0.738-0.657 -0.296-0.023-0.432 0.458-0.567 0.722 -3.549 6.918 0.414 8.333-6.651 29.167 -6.788 20.545-7.584 34.862-7.787 42.653l85.857 0.377c0-2.34 0.489-11.058 0.359-14.141 -1.389-24.286-4.313-26.113-9.25-35.184 0 0-4.394-2.179-5.85-3.236 -4.889-3.742-0.59 0.023-22.03-6 -17.576-5.135-18.525-6.577-24.899-8.35 -1.288-0.369-4.057-0.822-6.95-2.851C133.475 168.689 132.341 166.944 132.246 166.374zM116.974 237.31c3.729-23.564 6.085-29.73 11.296-47.274 3.522-11.104 1.576-17.408 3.254-22.54 0.088-0.268 0.467-0.282 0.571-0.017 2.434 6.214 9.238 7.656 18.834 17.047 -5.813 5.813-7.309 7.38-8.06 8.38 0.864 0.438 5.582 2.229 9.9 3.9 -0.245 0.767-13.415 38.02-13.57 38.52 10-21.578 11.292-28.211 14.22-39.01 -0.812-0.612-7.892-3.212-9.09-3.64 4.274-4.424 5.51-5.396 7.53-7.971 1.622 0-15.874-13.318-16.73-14.211 0.462 0.364 2.752 1.391 3.01 1.491 14.682 5.166 3.065 2.829 35.2 12.001 3.072 0.781 7.355 1.567 10.53 1.879 0.218 0.02 5.395 2.727 8.35 3.97 -7.189 7.475-11.797 17.133-12.81 29.5 3.219-12.666 4.951-19.29 13.14-28.819 7.62 15.422 6.755 13.195 9.23 47.71C181.167 237.413 149.559 237.227 116.974 237.31zM66.261 168.875c-2.894 2.028-5.662 2.481-6.95 2.851 -6.374 1.772-7.323 3.215-24.899 8.35 -21.44 6.023-17.142 2.258-22.03 6 -1.456 1.058-5.85 3.236-5.85 3.236 -4.937 9.07-7.861 10.897-9.25 35.184 -0.13 3.083 0.359 11.801 0.359 14.141l85.857-0.377c-0.203-7.791-0.999-22.108-7.787-42.653 -7.065-20.834-3.103-22.249-6.651-29.167 -0.136-0.264-0.271-0.745-0.567-0.722 -0.295 0.023-0.689 0.364-0.738 0.657C67.659 166.944 66.525 168.689 66.261 168.875zM-1.779 238.226c2.476-34.515 1.61-32.288 9.23-47.71 8.188 9.529 9.921 16.153 13.14 28.819 -1.013-12.367-5.62-22.025-12.81-29.5 2.955-1.243 8.132-3.95 8.35-3.97 3.175-0.312 7.458-1.098 10.53-1.879 32.135-9.172 20.519-6.835 35.2-12.001 0.258-0.101 2.548-1.127 3.01-1.491 -0.856 0.893-18.353 14.211-16.73 14.211 2.021 2.575 3.256 3.547 7.53 7.971 -1.198 0.428-8.278 3.027-9.09 3.64 2.928 10.799 4.22 17.432 14.22 39.01 -0.155-0.5-13.325-37.753-13.57-38.52 4.318-1.672 9.036-3.463 9.9-3.9 -0.751-1-2.247-2.567-8.06-8.38 9.596-9.391 16.4-10.833 18.834-17.047 0.104-0.266 0.483-0.251 0.571 0.017 1.678 5.132-0.269 11.436 3.254 22.54 5.211 17.544 7.567 23.71 11.296 47.274C50.441 237.227 18.833 237.413-1.779 238.226z" fill="#000f30" stroke-width="none" opacity="1" stroke="none"></path></g><g id="svga-group-head" ><g id="svga-group-ears-left" ><path id="SvgjsPath3085" d="M46.778 83.613c-2.623-1.48-8.575-8.52-11.138-7.517 -1.655 0.646-2.377 5.504-2.638 7.47 -0.333 2.525-0.929 7.711-0.328 10.185 0.725 2.985 3.631 8.507 5.37 11.027 1.468 2.122 5.211 5.797 6.407 8.088 0.759 1.454 1.493 5.373 4.083 5.12 1.674-0.164 5.537-3.072 5.744-4.452C55.406 106.057 51.943 86.528 46.778 83.613z" fill="#ffd0bc" stroke="#d17f5b" stroke-width="1.5" opacity="1"></path><path id="SvgjsPath3086" d="M43.313 99.76c-0.125-0.556 0.006-1.491 0.133-2.395 0.115-0.824 0.224-1.601 0.158-2.151 -0.251-2.06-1.66-5.975-2.578-8.097 -1.059-2.44-2.771-5.515-4.919-6.307 -0.888-0.33-1.473 0.063-1.813 0.461 -0.248 0.292-0.305 0.636-0.223 0.676 0.082 0.041 0.266-0.244 0.535-0.512 0.219-0.219 0.542-0.407 0.983-0.368 -0.178 1.026-1.091 6.582-0.696 10.369 0.311 2.978 1.489 5.202 1.673 5.536 0.028 0.352 0.073 0.695 0.139 1.028 0.869 4.347 4.648 9.29 5.963 10.908 0.243 0.298 0.496 0.476 0.56 0.404 0.062-0.074-0.087-0.368-0.33-0.668 -1.298-1.609-5.042-6.533-5.879-10.728 -0.89-4.45 2.167-11.048 2.849-12.443 0.348 0.655 0.643 1.285 0.87 1.809 0.179 0.412 0.378 0.894 0.581 1.414 -0.402 0.729-3.211 6.042-2.187 10.295 0.38 1.568 2.088 3.589 3.223 4.143 0.624 0.306 0.859 0.761 1.13 1.288 0.314 0.613 0.673 1.307 1.708 1.81 0.211 0.101 0.402 0.144 0.571 0.144 0.293 0 0.515-0.126 0.679-0.281 0.017 0.268 0.016 0.611 0.007 0.928 -0.01 0.411 0.041 0.747 0.129 0.756 0.088 0.008 0.182-0.318 0.192-0.726 0.016-0.503 0.013-1.125-0.067-1.422 -0.232-0.877-0.942-1.867-1.694-2.915C44.27 101.685 43.504 100.618 43.313 99.76zM36.538 95.905c-2.035-6.825 0-13.093 0.458-14.029 0.795 0.785 2.108 2.213 2.679 3.239C39.258 85.938 36.623 91.315 36.538 95.905zM45.318 105.891c-0.938-0.456-1.253-1.067-1.557-1.657 -0.275-0.535-0.56-1.087-1.281-1.44 -0.157-0.077-0.33-0.193-0.505-0.328 -2.324-5.988 0.254-8.606 0.899-9.142 0.199 0.731 0.346 1.403 0.411 1.941 0.061 0.495-0.05 1.28-0.156 2.041 -0.132 0.942-0.268 1.916-0.127 2.546 0.211 0.94 0.999 2.038 1.76 3.1 0.677 0.943 1.373 1.915 1.609 2.708C46.271 105.818 45.949 106.195 45.318 105.891z" fill="#d17f5b" stroke-width="none" opacity="1"></path></g><g id="svga-group-ears-right" ><path id="SvgjsPath3087" d="M152.961 83.613c2.623-1.48 8.574-8.52 11.137-7.517 1.656 0.646 2.379 5.504 2.639 7.47 0.334 2.525 0.928 7.711 0.328 10.185 -0.725 2.985-3.631 8.507-5.371 11.027 -1.467 2.122-5.211 5.797-6.406 8.088 -0.76 1.454-1.492 5.373-4.084 5.12 -1.674-0.164-5.535-3.072-5.744-4.452C144.332 106.057 147.795 86.528 152.961 83.613z" fill="#ffd0bc" stroke="#d17f5b" stroke-width="1.5" opacity="1"></path><path id="SvgjsPath3088" d="M154.729 102.716c-0.752 1.047-1.463 2.038-1.695 2.915 -0.078 0.297-0.082 0.919-0.066 1.422 0.012 0.407 0.105 0.733 0.193 0.726 0.088-0.009 0.139-0.345 0.129-0.756 -0.01-0.316-0.01-0.66 0.006-0.928 0.164 0.155 0.387 0.281 0.68 0.281 0.168 0 0.359-0.043 0.57-0.144 1.035-0.503 1.395-1.196 1.709-1.81 0.271-0.527 0.506-0.982 1.131-1.288 1.133-0.554 2.842-2.575 3.223-4.143 1.023-4.253-1.785-9.566-2.188-10.295 0.203-0.52 0.402-1.002 0.582-1.414 0.225-0.524 0.521-1.154 0.869-1.809 0.682 1.395 3.738 7.993 2.848 12.443 -0.838 4.195-4.582 9.118-5.879 10.728 -0.242 0.3-0.393 0.594-0.33 0.668 0.064 0.071 0.318-0.106 0.561-0.404 1.314-1.618 5.094-6.561 5.963-10.908 0.066-0.333 0.111-0.677 0.139-1.028 0.184-0.334 1.363-2.558 1.674-5.536 0.395-3.788-0.518-9.343-0.695-10.369 0.441-0.039 0.764 0.149 0.982 0.368 0.268 0.268 0.453 0.552 0.535 0.512 0.08-0.041 0.023-0.384-0.223-0.676 -0.342-0.397-0.926-0.791-1.813-0.461 -2.148 0.792-3.861 3.867-4.92 6.307 -0.92 2.123-2.326 6.037-2.578 8.097 -0.066 0.55 0.043 1.328 0.158 2.151 0.127 0.904 0.256 1.839 0.133 2.395C156.234 100.618 155.469 101.685 154.729 102.716zM160.064 85.115c0.57-1.026 1.883-2.455 2.678-3.239 0.457 0.936 2.494 7.204 0.459 14.029C163.115 91.315 160.48 85.938 160.064 85.115zM153.367 105.66c0.236-0.793 0.932-1.765 1.609-2.708 0.762-1.063 1.549-2.16 1.76-3.1 0.141-0.631 0.006-1.604-0.127-2.546 -0.105-0.76-0.217-1.546-0.156-2.041 0.066-0.539 0.213-1.21 0.412-1.941 0.645 0.536 3.223 3.154 0.898 9.142 -0.176 0.134-0.348 0.25-0.504 0.328 -0.723 0.353-1.008 0.905-1.281 1.44 -0.305 0.59-0.619 1.201-1.559 1.657C153.789 106.195 153.467 105.818 153.367 105.66z" fill="#d17f5b" stroke-width="none" opacity="1"></path></g><g id="svga-group-faceshape-wrap" ><g id="svga-group-faceshape-single" ><path id="SvgjsPath3054" d="M158.785 78.006l-0.005 0c-0.01 0.046-12.197 40.27-15.879 52.418 -0.715 2.358-1.931 4.551-3.556 6.386 -6.375 7.194-23.768 25.057-39.324 25.057 -15.849 0-33.591-19.045-39.708-26.214 -1.442-1.688-2.507-3.633-3.172-5.765 -3.607-11.551-16.126-51.648-16.137-51.694h-0.001c-1.298-4.992-1.994-10.231-2.002-15.634C38.949 28.536 66.155 0.92 99.773 0.867c33.621-0.053 60.913 27.476 60.964 61.499C160.746 67.769 160.068 73.01 158.785 78.006z" fill="#ffd0bc" stroke-width="none" opacity="1" stroke="none"></path><path id="SvgjsPath3055" d="M132.168 10.26c14.31 11.135 23.671 29.457 23.699 50.208 0.009 5.404-0.615 10.645-1.796 15.641l-0.004 0c-0.009 0.046-11.223 40.27-14.608 52.417 -0.658 2.358-1.776 4.551-3.271 6.385 -5.865 7.195-21.866 25.059-36.178 25.059 -14.582 0-30.904-19.047-36.531-26.215 -1.327-1.689-2.306-3.633-2.918-5.764 -3.318-11.552-14.836-51.649-14.846-51.695h-0.001c-1.194-4.992-1.834-10.231-1.842-15.634 -0.029-20.827 9.348-39.239 23.713-50.412C50.392 21.159 38.967 40.508 39.001 62.56c0.008 5.403 0.704 10.643 2.002 15.634h0.001c0.01 0.046 12.53 40.143 16.137 51.694 0.666 2.132 1.73 4.076 3.172 5.765 6.116 7.169 23.858 26.214 39.708 26.214 15.557 0 32.949-17.862 39.324-25.057 1.625-1.835 2.841-4.027 3.556-6.386 3.682-12.148 15.869-52.372 15.879-52.418l0.005 0c1.283-4.997 1.961-10.237 1.952-15.641C160.704 40.389 149.297 21.135 132.168 10.26z" fill="#f7c1aa" stroke-width="none" opacity="1" stroke="none"></path><path id="SvgjsPath3056" d="M158.785 78.006l-0.005 0c-0.01 0.046-12.197 40.27-15.879 52.418 -0.715 2.358-1.931 4.551-3.556 6.386 -6.375 7.194-23.768 25.057-39.324 25.057 -15.849 0-33.591-19.045-39.708-26.214 -1.442-1.688-2.507-3.633-3.172-5.765 -3.607-11.551-16.126-51.648-16.137-51.694h-0.001c-1.298-4.992-1.994-10.231-2.002-15.634C38.949 28.536 66.155 0.92 99.773 0.867c33.621-0.053 60.913 27.476 60.964 61.499C160.746 67.769 160.068 73.01 158.785 78.006z" fill="none" stroke="#d17f5b" stroke-width="1.5" opacity="1"></path></g></g><g id="svga-group-mouth-single" ><path id="SvgjsPath3066" d="M100.389 141.808c-3.458 0-4.907-2.678-4.907-2.678l9.74-0.188C105.222 138.941 103.433 141.808 100.389 141.808z" fill="url(#SvgjsLinearGradient3067)" opacity="1"></path><path id="SvgjsPath3070" d="M98.82 139.206c-1.781 0-3.136-0.171-3.231-0.184 -0.146-0.02-0.248-0.146-0.228-0.282 0.02-0.138 0.157-0.227 0.301-0.214 0.04 0.006 6.084 0.5 9.357-0.195 0.156-0.03 0.289 0.057 0.321 0.189 0.031 0.135-0.06 0.269-0.202 0.299C103.729 139.118 100.096 139.206 98.82 139.206zM84.391 133.824c-0.365-0.663 4.097 0.111 6.79-0.551 2.98-0.732 6.101 0.208 9.133 0.479 2.382 0.213 4.838-0.975 7.191-0.436 3.261 0.747 8.236-0.196 7.843 0.594 -0.273 0.548-4.893 1.05-7.524 0.604 -2.301-0.39-4.683 0.556-7.006 0.73 -2.885 0.217-5.767-1.385-8.614-0.933C88.922 134.832 84.701 134.388 84.391 133.824z" fill="#d17f5b" stroke-width="none" opacity="1"></path></g><g id="svga-group-eyes-left" ><g id="svga-group-eyesback-left"><path id="SvgjsPath3313" d="M86.729 84.747c0.161 0.571 0.257 1.157 0.257 1.758 0 1.481-0.523 2.881-1.44 4.135 -4.077 0.038-16.966 0.706-18.935-0.303 -2.813-1.441-5.323-7.369-5.506-8.827C71.1 75.761 78.475 76.879 86.729 84.747z" fill="url(#SvgjsRadialGradient3314)" opacity="1"></path></g><g id="svga-group-eyesiriswrapper-left" transform="translate(0.75 0.5)"><g id="svga-group-eyesiriscontrol-left" ><g id="svga-group-eyesiris-left" ><path id="SvgjsPath3417" d="M79.788 85.588c-0.869 3.192-4.162 5.073-7.361 4.196 -3.197-0.876-5.084-4.178-4.214-7.371 0.869-3.195 4.168-5.076 7.365-4.198C78.772 79.09 80.659 82.392 79.788 85.588z" fill="#4d3623" stroke="#1f1105" stroke-width="0.5" opacity="1"></path><path id="SvgjsPath3418" d="M78.855 85.662c-0.849 2.452-3.407 3.881-5.899 3.199 -2.3-0.631-3.752-2.838-3.563-5.171 0.853-0.067 1.787-0.087 2.756-0.04 -0.01 0.033-0.027 0.062-0.036 0.096 -0.306 1.125 0.407 2.305 1.592 2.63 1.189 0.326 2.401-0.326 2.707-1.451 0.039-0.147 0.06-0.294 0.065-0.439C77.29 84.782 78.088 85.165 78.855 85.662z" fill="#5c4633" stroke-width="none" opacity="1" stroke="none"></path><path id="SvgjsPath3419" d="M74.813 82.21c-1.203-0.344-2.429 0.342-2.739 1.54 -0.311 1.191 0.412 2.438 1.614 2.783 1.204 0.345 2.43-0.342 2.741-1.534C76.742 83.801 76.016 82.555 74.813 82.21zM75.075 86.442c-0.5 0.156-1.017-0.051-1.154-0.462 -0.133-0.411 0.163-0.867 0.667-1.019 0.503-0.156 1.019 0.051 1.157 0.459C75.881 85.831 75.582 86.287 75.075 86.442z" fill="#000000" stroke-width="none" opacity="0.9"></path><path id="SvgjsPath3420" d="M70.811 87.159c-0.37 0.222-0.922 0.023-1.238-0.447 -0.316-0.466-0.269-1.024 0.102-1.247 0.368-0.219 0.925-0.021 1.239 0.446C71.226 86.378 71.181 86.938 70.811 87.159z" fill="#ffffff" stroke-width="none" opacity="0.6"></path><path id="SvgjsPath3421" d="M78.71 83.74c-0.846 0.507-2.117 0.051-2.837-1.02 -0.72-1.072-0.612-2.352 0.234-2.857 0.844-0.509 2.118-0.053 2.834 1.019C79.66 81.954 79.556 83.232 78.71 83.74z" fill="#ffffff" stroke-width="none" opacity="0.8"></path></g></g></g><g id="svga-group-eyesfront-left"><path id="SvgjsPath3338" d="M55.8 79.995c0 13.808 8.06 31.404 18 31.404s18-11.191 18-24.999c0-13.809-8.06-25.001-18-25.001S55.8 66.187 55.8 79.995zM61.104 81.51c9.995-5.749 17.37-4.63 25.624 3.237 0.161 0.571 0.257 1.157 0.257 1.758 0 1.481-0.523 2.881-1.44 4.135 -4.077 0.038-16.966 0.706-18.935-0.303C63.798 88.896 61.287 82.968 61.104 81.51z" fill="#ffd0bc" stroke-width="none" opacity="1"></path><path id="SvgjsPath3339" d="M61.209 81.995c0.522 1.979 2.833 7.026 5.401 8.342 1.969 1.009 14.857 0.341 18.935 0.303 0.917-1.253 1.44-2.653 1.44-4.135 0-0.601-0.096-1.187-0.257-1.758 -8.166-7.784-15.476-8.95-25.31-3.407 1.968-5.724 8.522-9.952 16.34-9.987 9.393-0.04 17.018 5.981 17.041 13.451 0.023 7.469-7.572 13.554-16.961 13.596 -9.393 0.04-17.016-5.981-17.039-13.45C60.797 83.934 60.945 82.948 61.209 81.995z" fill="url(#SvgjsRadialGradient3340)" opacity="1"></path><path id="SvgjsPath3344" d="M66.61 90.337c-2.813-1.441-5.323-7.369-5.506-8.827 9.995-5.749 17.37-4.63 25.624 3.237 0.161 0.571 0.257 1.157 0.257 1.758 0 1.481-0.523 2.881-1.44 4.135C81.468 90.678 68.579 91.346 66.61 90.337z" fill="url(#SvgjsRadialGradient3345)" opacity="1"></path><path id="SvgjsPath3348" d="M61.138 78.389c3.414-1.34 17.798-6.314 25.648 4.274C77.8 72.562 65.582 77.218 61.138 78.389z" fill="#d17f5b" stroke-width="none" opacity="1"></path><path id="SvgjsPath3349" d="M58.8 80.972c1.217 2.342 6.361 10.159 7.561 10.218 10.059 0.608 16.311-0.248 20.313-0.813 -1.499-0.19-17.826 0.781-20.063-0.313 -2.813-1.375-5.323-7.031-5.506-8.423 10.251-5.626 17.743-4.379 26.256 3.659C79.06 72.701 61.853 78.441 58.8 80.972z" fill="#000000" stroke-width="none" opacity="1"></path></g></g><g id="svga-group-eyes-right" ><g id="svga-group-eyesback-right"><path id="SvgjsPath3321" d="M112.872 84.747c-0.161 0.571-0.257 1.157-0.257 1.758 0 1.481 0.523 2.881 1.44 4.135 4.077 0.038 16.966 0.706 18.935-0.303 2.813-1.441 5.323-7.369 5.506-8.827C128.501 75.761 121.126 76.879 112.872 84.747z" fill="url(#SvgjsRadialGradient3322)" opacity="1"></path></g><g id="svga-group-eyesiriswrapper-right" transform="translate(-0.75 0.5)"><g id="svga-group-eyesiriscontrol-right" ><g id="svga-group-eyesiris-right" ><path id="SvgjsPath3422" d="M131.788 85.588c-0.869 3.192-4.162 5.073-7.362 4.196 -3.196-0.876-5.084-4.178-4.214-7.371 0.869-3.195 4.169-5.076 7.365-4.198C130.772 79.09 132.658 82.392 131.788 85.588z" fill="#4d3623" stroke="#1f1105" stroke-width="0.5" opacity="1"></path><path id="SvgjsPath3423" d="M130.855 85.662c-0.849 2.452-3.408 3.881-5.899 3.199 -2.3-0.631-3.753-2.838-3.563-5.171 0.854-0.067 1.787-0.087 2.756-0.04 -0.01 0.033-0.027 0.062-0.036 0.096 -0.306 1.125 0.407 2.305 1.593 2.63 1.189 0.326 2.401-0.326 2.707-1.451 0.038-0.147 0.06-0.294 0.065-0.439C129.29 84.782 130.089 85.165 130.855 85.662z" fill="#5c4633" stroke-width="none" opacity="1" stroke="none"></path><path id="SvgjsPath3424" d="M126.813 82.21c-1.202-0.344-2.429 0.342-2.738 1.54 -0.312 1.191 0.412 2.438 1.613 2.783 1.204 0.345 2.431-0.342 2.742-1.534C128.741 83.801 128.016 82.555 126.813 82.21zM127.075 86.442c-0.5 0.156-1.018-0.051-1.154-0.462 -0.133-0.411 0.163-0.867 0.667-1.019 0.503-0.156 1.019 0.051 1.157 0.459C127.881 85.831 127.582 86.287 127.075 86.442z" fill="#000000" stroke-width="none" opacity="0.9"></path><path id="SvgjsPath3425" d="M122.812 87.159c-0.37 0.222-0.923 0.023-1.238-0.447 -0.316-0.466-0.27-1.024 0.102-1.247 0.367-0.219 0.926-0.021 1.239 0.446C123.227 86.378 123.181 86.938 122.812 87.159z" fill="#ffffff" stroke-width="none" opacity="0.6"></path><path id="SvgjsPath3426" d="M130.71 83.74c-0.846 0.507-2.116 0.051-2.837-1.02 -0.72-1.072-0.612-2.352 0.234-2.857 0.845-0.509 2.117-0.053 2.834 1.019C131.66 81.954 131.557 83.232 130.71 83.74z" fill="#ffffff" stroke-width="none" opacity="0.8"></path></g></g></g><g id="svga-group-eyesfront-right"><path id="SvgjsPath3359" d="M125.801 61.399c-9.94 0-18 11.193-18 25.001 0 13.808 8.06 24.999 18 24.999s18-16.226 18-30.033C143.801 67.558 135.741 61.399 125.801 61.399zM132.99 90.337c-1.969 1.009-14.857 0.341-18.935 0.303 -0.917-1.253-1.44-2.653-1.44-4.135 0-0.601 0.096-1.187 0.257-1.758 8.254-7.868 15.629-8.986 25.624-3.237C138.313 82.968 135.803 88.896 132.99 90.337z" fill="#ffd0bc" stroke-width="none" opacity="1"></path><path id="SvgjsPath3360" d="M138.392 81.995c-0.522 1.979-2.833 7.026-5.401 8.342 -1.969 1.009-14.857 0.341-18.935 0.303 -0.917-1.253-1.44-2.653-1.44-4.135 0-0.601 0.096-1.187 0.257-1.758 8.166-7.784 15.476-8.95 25.31-3.407 -1.968-5.724-8.522-9.952-16.34-9.987 -9.393-0.04-17.018 5.981-17.041 13.451 -0.023 7.469 7.572 13.554 16.961 13.596 9.393 0.04 17.016-5.981 17.039-13.45C138.804 83.934 138.655 82.948 138.392 81.995z" fill="url(#SvgjsRadialGradient3361)" opacity="1"></path><path id="SvgjsPath3365" d="M132.99 90.337c2.813-1.441 5.323-7.369 5.506-8.827 -9.995-5.749-17.37-4.63-25.624 3.237 -0.161 0.571-0.257 1.157-0.257 1.758 0 1.481 0.523 2.881 1.44 4.135C118.133 90.678 131.021 91.346 132.99 90.337z" fill="url(#SvgjsRadialGradient3366)" opacity="1"></path><path id="SvgjsPath3369" d="M112.814 82.664c7.85-10.588 22.234-5.615 25.648-4.274C134.019 77.218 121.801 72.562 112.814 82.664z" fill="#d17f5b" stroke-width="none" opacity="1"></path><path id="SvgjsPath3370" d="M140.801 80.972c-1.217 2.342-6.361 10.159-7.561 10.218 -10.059 0.608-16.311-0.248-20.313-0.813 1.499-0.19 17.826 0.781 20.063-0.313 2.813-1.375 5.323-7.031 5.506-8.423 -10.251-5.626-17.743-4.379-26.256 3.659C120.541 72.701 137.748 78.441 140.801 80.972z" fill="#000000" stroke-width="none" opacity="1"></path></g></g><g id="svga-group-facehighlight-single" ><path id="SvgjsPath2885" d="M141 113.974c0.035 22.622-18.292 40.994-40.938 41.025 -22.642 0.037-41.028-18.273-41.063-40.9 -0.035-22.62 18.292-41.064 40.937-41.1C122.579 72.964 140.967 91.349 141 113.974z" fill="url(#SvgjsRadialGradient2886)" opacity="1"></path><path id="SvgjsPath2889" d="M137.5 53.999c0 20.711-16.789 37.5-37.499 37.5 -20.711 0-37.501-16.789-37.501-37.5s16.79-37.5 37.501-37.5C120.711 16.499 137.5 33.288 137.5 53.999z" fill="url(#SvgjsRadialGradient2890)" opacity="1"></path></g><g id="svga-group-eyebrows-left" ><path id="SvgjsPath3427" d="M54 74.189c9.954-9.974 16.761-5.915 30.589-3.264 0.845 0.162 6.32 1.539 5.31 3.469 -0.483 0.924-2.036 0.814-2.903 0.798C73.308 74.936 66.652 65.197 54 74.189z" fill="#2a232b" stroke-width="none" opacity="1"></path></g><g id="svga-group-eyebrows-right" ><path id="SvgjsPath3428" d="M146 74.189c-9.953-9.974-16.761-5.915-30.589-3.264 -0.846 0.162-6.32 1.539-5.311 3.469 0.483 0.924 2.036 0.814 2.903 0.798C126.691 74.936 133.348 65.197 146 74.189z" fill="#2a232b" stroke-width="none" opacity="1"></path></g><g id="svga-group-nose-single" ><path id="SvgjsPath3074" d="M109.895 118.829c0.19-0.512 0.307-1.047 0.396-1.584 0.033-0.198-0.229-0.929-0.252-0.697 -0.101 0.941-0.612 2.262-1.6 2.551 -1.133 0.329-1.783-0.056-1.886-1.172 -0.104-1.125 0.297-2.619-0.109-3.665 -0.264-0.676-0.856-1.226-1.464-1.606 0.458 2.04 0.823 4.704-1.128 6.164 0.167 0.199 0.319 0.293 0.467 0.333 -0.153 0.026-0.308 0.059-0.467 0.13 -0.771 0.352-3.586 1.015-4.404 0.657 -0.193-0.085-0.622-0.152-1.16-0.204 -0.362-0.315-1.023-1.138-1.332-1.328 -1.215-0.751-1.851-2.069-1.926-3.472 -0.163-2.955 1.373-6.245 4.861-7.528 -3.578-1.004-4.064 4.863-6.408 6.172 -1.402 0.783-2.741 1.479-2.716 3.229 0.008 0.579 0.078 1.419 0.34 2.122 -0.421-0.591-0.699-1.125-0.739-0.653 -0.342 3.979 3.522 2.884 5.042 3.158 1.255 0.227 3.412 0.544 4.459 0.563 1.137 0.02 2.858-0.377 3.981-0.563 1.087-0.181 2.985 0.037 4.381-0.59 0.824-0.371 2.006-0.612 2.006-2.211l-0.402 0.326C109.855 118.916 109.878 118.874 109.895 118.829z" fill="#f0b399" stroke-width="none" opacity="1"></path><path id="SvgjsPath3075" d="M90.642 116.322c0.15-0.48 0.371-0.961 0.73-1.324 -0.631 1.095-0.719 2.661-0.152 3.799 0.697 1.399 1.94 1.104 3.131 0.563 1.191-0.54 1.188-0.938 2.426-0.526 0.963 0.319 1.737 0.795 2.797 0.793 1.132-0.002 1.977-0.471 3.03-0.798 1.278-0.38 2.357-0.162 3.559 0.378 1.13 0.509 2.426 1.15 3.301-0.117 0.773-1.148 0.69-2.922 0.017-4.092 1.51 1.542 1.145 5.938-1.745 5.384 -0.397-0.08-1.098-0.563-1.451-0.469 -0.64 0.175-1.445 0.007-2.091-0.054 -1.175-0.112-2.195-0.108-3.312 0.174 -0.429 0.1-0.869 0.158-1.309 0.154 -0.525-0.007-1.057-0.268-1.556-0.237 -1.4 0.086-1.984-0.214-3.39-0.124 -1.197 0.077-1.955 1.13-3.142 0.177C90.436 119.125 90.275 117.566 90.642 116.322 90.719 116.078 90.497 116.814 90.642 116.322zM101.211 107.662c0.557 0.115 1.063 0.367 1.531 0.684 -1.391-2.209-4.931-1.408-6.339 0.345C97.843 107.926 99.562 107.296 101.211 107.662 101.478 107.719 100.678 107.543 101.211 107.662z" fill="#d17f5b" stroke-width="none" opacity="1"></path><path id="SvgjsPath3076" d="M93.079 117.678c-0.216-1.586 0.406-3.049-0.995-1.972C91.214 116.375 93.418 120.168 93.079 117.678z" fill="#ffe2d6" stroke-width="none" opacity="1"></path></g><g id="svga-group-beardwrap" ><g id="svga-group-beard-single" ><path id="SvgjsPath3465" d="M100,18.13L100,18.13L100,18.13L100,18.13z" fill="#2a232b" stroke-width="none" opacity="1"></path></g></g><g id="svga-group-mustache-single" ><path id="SvgjsPath3457" d="M100,18.13L100,18.13L100,18.13L100,18.13z" fill="#2a232b" stroke-width="none" opacity="1"></path></g><g id="svga-group-hair-front" ><path id="SvgjsPath3441" d="M44.974,94.895c-2.423-8.815-3.728-16.533-5.54-24.585l0.083-0.019c-0.686-1.689-3.162-15.06-3.185-15.204c-2.525-17.77,4.993-18.784,4.84-26.198c3.165,1.585,6.242,0.799,9.019-1.365c-2.918-1.499-1.997-1.736-5.872-4.095c2.731-0.472,4.326,0.165,6.646,0.454c-1.983-1.983-5.875-6.028-8.404-5.492l-0.165-0.354c3.661-2.857,8.548,3.091,12.954,1.48C55.483,3.144,79.417-0.256,85.242-2.689c7.755-2.951,15.856-9.441,21.553-10.021c-3.225,3.241-5.2,8.449-5.347,12.358c4.698-4.486,5.03-4.355,12.151-12.264c0,6.364-1.763,7.163-4.051,10.898c6.211-4.07,13.955-15.489,25.881-17.235l0.131,0.37c-4.298,2.532-7.624,6.804-9.898,12.708c2.257-2.726,5.451-5.683,8.986-6.218l0.133,0.369c-2.215,1.325-6.554,5.742-7.547,13.138c4.381-4.893,11.35-8.948,16.134-10.48l0.187,0.346c-4.392,3.573-6.153,9.828-7.146,15.146c3.08-4.58,4.872-5.624,8.747-7.548c-1.247,1.865-1.166,1.539-2.158,3.566c2.396,6.123,10.313,6.361,11.666,17.059c1.63-1.424,2.277-1.781,4.151-3.092l0.282,0.272c-1.408,2.187-2.569,6.06-3.342,8.652c2.78-2.123,7.073-3.687,10.096-4.778l0.211,0.328c-2.551,2.593-5.648,6.546-6.162,10.834c1-0.592,1.048-0.524,2.35-1.466c0,3.081,0.105,2.688,0.127,4.105c1.257-1.125,1.45-1.282,2.276-2.181c-0.183,32.362-1.845,25.912-6.317,48.466c-0.784,3.963-2.171,10.883-3.061,14.207l-6.049,1.039c1.87-22.394-0.093-17.512,1.267-31.604c2.012-20.779-14.804-37.812-37.025-32.237c-4.496,1.128-22.44,1.127-26.934,0c-24.547-6.163-33.391,8.18-36.026,33.278c-1.291,12.318-1.607,8.161,0.267,30.563L44.974,94.895z" fill="#2a232b" stroke-width="none" opacity="1"></path><path id="SvgjsPath3442" d="M162.376,34.359c-0.021-1.418-0.127-1.024-0.127-4.105c-1.302,0.941-1.35,0.874-2.35,1.466c0.514-4.288,3.611-8.241,6.162-10.834l-0.211-0.328c-3.022,1.092-7.315,2.655-10.096,4.778c0.772-2.592,1.934-6.465,3.342-8.652l-0.282-0.272c-1.874,1.311-2.521,1.668-4.151,3.092c-1.353-10.697-9.27-10.936-11.666-17.059c0.992-2.027,0.911-1.701,2.158-3.566c-3.875,1.924-5.667,2.968-8.747,7.548c0.993-5.318,2.755-11.573,7.146-15.146l-0.187-0.346c-4.784,1.532-11.753,5.587-16.134,10.48c0.993-7.396,5.332-11.813,7.547-13.138l-0.133-0.369c-3.535,0.535-6.729,3.493-8.986,6.218c2.274-5.904,5.601-10.176,9.898-12.708l-0.131-0.37c-11.926,1.746-19.67,13.165-25.881,17.235c2.288-3.735,4.051-4.535,4.051-10.898c-7.121,7.909-7.453,7.778-12.151,12.264c0.146-3.909,2.122-9.118,5.347-12.358c-5.696,0.58-13.797,7.069-21.553,10.021C79.417-0.256,55.483,3.144,55.35,19.518c-4.406,1.611-9.293-4.337-12.954-1.48l0.165,0.354c2.529-0.537,6.421,3.508,8.404,5.492c-2.319-0.289-3.915-0.926-6.646-0.454c3.875,2.359,2.954,2.596,5.872,4.095c-2.777,2.164-5.854,2.95-9.019,1.365c0.153,7.415-7.366,8.429-4.84,26.198c0.023,0.144,2.499,13.515,3.185,15.204l-0.083,0.019c1.812,8.052,3.117,15.771,5.54,24.585L45,94.899c-0.661-16.442-11.02-39.816-4.941-54.788C40.852,38.156,43.92,33,43.92,33s9.627-1.264,10.08-5c0,0-2-1-3-2c2,1,2-2,4-1c0-2-3-1-3-3c2,0,4,0,6,2c-1-5,0-10,4-13C72,3,85,4,95-4c-1,5-2,10-2,15c6-3,8-9,13-13c1,4-1,9-1,13c3-7,7-14,16-16c-4,4-4,10-4,15c0-4,4-6,5-9c0,4,0,8,0,12c2-6,6-9,11-11c-4,4-3,8-4,13c3-3,7-4,10-7c3,6,1,11,1,17c1-5,6-8,9-12c1,5,1,10,0,15c1-3,3-5,4-8c0,4.86-0.668,9.062-1.98,13.142c1.255-1.452,3.304-2.111,3.98-4.142c0,4.325,0,7.904,0,12.027c0.58-1.192,2.29-1.608,3-3.027c-0.854,3.413-0.254,6.103-0.059,9.302c0.371-1.96,2.258-3.162,2.94-4.967c0.04-0.778,0.081-1.557,0.118-2.335c0.229,0.912,0.135,1.664-0.118,2.335c-0.912,17.771-2.593,35.516-6.256,52.628l0.648-0.111c0.89-3.324,2.276-10.244,3.061-14.207c4.473-22.554,6.135-16.104,6.317-48.466C163.826,33.078,163.633,33.235,162.376,34.359z" fill="#3a353a" stroke-width="none" opacity="1"></path><path id="SvgjsPath3443" d="M167.779,19.695c-4.949,0.834-8.406,2.438-11.05,4.25c0.385-1.005,2.193-6.67,4.14-9.05c-2.99,1.333-4.72,2.763-5.72,3.51c0-1.032-0.398-2.224-0.59-2.84c-0.189-0.515-0.348-1.117-1.271-2.62c-5.171-7.296-5.494-4.244-9.729-9.83c0.772-1.811,1.889-3.572,3.29-5.03c-3.908,0.555-5.965,2.075-8.44,4.51c-0.04,0.04-0.07,0.08-0.1,0.12c1.551-6.126,4.59-11.437,10.56-13.43c-7.384-0.268-16.525,5.192-21.12,10.64c1.984-6.381,4.646-9.421,8.601-12.25c-2.846-0.421-5.635,0.742-7.841,2.58c2.541-4.397,6.317-7.899,9.351-9.53c-0.431-0.01-0.94-0.04-1.5,0c-0.777-0.199-5.479,0.566-7.16,1.29c-8.329,3.252-14.389,10.822-16.99,13.28c1.916-3.098,2.01-5.298,1.66-8.52c-0.655,0.563-11.615,11.055-11.75,11.19c0.777-4.309,2.245-6.937,5.02-10.79c-4.947-0.926-17.332,7.217-25.01,9.39c-8.044,2.179-28.004,6.723-27.09,22.7c-4.295,0.819-10.584-6.077-13.88-0.29c2.646-1.57,6.151,2.21,8.59,4.37c-1-0.163-4.343-0.948-5.96,0.13c1.894,0.735,3.55,2.932,5.89,4.1c0.03,0.01,0.06,0.02,0.09,0.04c-2.139,1.128-4.667,2.034-6.99,1.39c-0.35-0.1-0.58-0.16-0.58-0.17c-0.27-0.12-0.56-0.24-0.87-0.38h-0.01l-0.01-0.01c-0.13-0.07-0.26-0.14-0.4-0.21c0.695,5.608-7.817,10.155-6.88,22.02c0.385,7.301,4.949,29.508,10.686,44.566l0.483,0.144c-2.392-8.626-3.777-16.74-5.569-24.701c-0.156,0-3.073-15.044-3.1-15.21c-2.506-17.631,4.994-18.91,4.85-25.84c3.121,1.561,6.532,0.436,9.18-1.73c-3.118-1.551-2.453-1.988-5.68-3.95c2.163-0.374,4.803,0.483,6.62,0.6c-2.346-2.346-6.299-6.51-8.98-5.94c3.568-2.785,8.497,3.271,13.03,1.46c0-16.383,23.723-19.635,29.77-22.16c7.271-2.766,16.283-9.476,20.939-9.95c-2.44,2.458-5.02,7.901-5.02,12.58c4.834-4.638,5.31-4.615,12.16-12.22c0,6.014-2.247,7.088-4.431,10.97c6.414-3.698,14.179-15.828,26.49-17.63c-5.154,3.037-8.435,8.325-10.41,13.97c2.352-3.059,5.8-6.53,9.63-7.11c-2.009,1.202-6.861,5.782-7.72,13.93c4.345-5.114,11.586-9.346,16.47-10.91c-4.605,3.748-6.368,10.371-7.39,16.22c1.687-2.573,3.357-4.897,5.97-6.54c0.011-0.01,0.03-0.02,0.04-0.02c1.029-0.699,0.76-0.509,2.521-1.39c-0.669,1-0.731,0.87-1.79,3.04c2.426,6.377,10.523,6.413,11.729,17.47c1.857-1.647,2.441-1.944,4.42-3.33c-1.542,2.394-2.784,6.768-3.55,9.32c2.905-2.485,8.279-4.33,10.54-5.15c-3,3.05-5.913,7.096-6.26,11.36c0.614-0.413,1.394-0.74,2.39-1.46c0,2.724,0.13,2.36,0.13,4.16c0.526-0.481,1.72-1.51,2.271-2.11c-0.196,31.716-1.88,25.564-6.311,47.91c-1.658,8.376-2.533,12.25-3.081,14.283l0.428-0.087c3.584-10.751,10.737-35.042,10.414-47.616c-0.033-4.7-1.059-14.5-1.11-15.5c-0.021,0.018-2.084,1.97-2.11,1.97c0-0.511-0.21-2.685-0.21-3.87c-0.353,0.271-1.095,0.778-2.09,1.36C161.758,26.981,163.857,24.394,167.779,19.695z" fill="#000000" stroke-width="none" opacity="1"></path></g><g id="svga-group-glasses-single" ><path id="SvgjsPath3431" d="M107.18 85.7c0.25 0.34 0.26 0.68 0.32 1.27 0.06 0.58 0.08 1.01 0.08 1.01s0.11 1.46 0.24 2.33c0.13 0.88 0 1.63-1.2 1.63 -1.48 0-1.56-3.82-1.69-4.67C104.62 85.27 105.99 84.07 107.18 85.7zM92.82 85.7c-0.25 0.34-0.26 0.68-0.32 1.27 -0.06 0.58-0.08 1.01-0.08 1.01s-0.11 1.46-0.24 2.33c-0.13 0.88 0 1.63 1.2 1.63 1.48 0 1.56-3.82 1.69-4.67C95.38 85.27 94.01 84.07 92.82 85.7z" fill="#26120b" stroke-width="none" opacity="0.5"></path><path id="SvgjsPath3432" d="M148.51 85.14c-0.54 5.69-4.31 13.57-21.04 13.58h-0.04c-7.37 0-13.2-1.97-16.85-5.71 -2.77-2.83-4.15-6.52-4.15-10.94C116.3 76.92 140.48 77.34 148.51 85.14zM51.42 83.67c0.04 5.68 2.88 15.03 21.11 15.05h0.04c7.37 0 13.2-1.97 16.85-5.71 2.5-2.56 3.88-5.81 4.12-9.68C82.89 76.69 58.36 77.42 51.42 83.67z" fill="#ffffff" stroke-width="none" opacity="0.2"></path><path id="SvgjsPath3433" d="M148.59 83.53c0 0.51-0.02 1.05-0.08 1.6 -8.03-7.8-32.21-8.22-42.07-3.07 0-0.16-0.01-0.31-0.01-0.47 0-0.09 1.62-9.54 19.19-9.54C142.35 72.05 148.59 79.09 148.59 83.53zM74.38 72.05c-16.73 0-22.97 7.04-22.97 11.48 0 0.04 0 0.09 0 0.13 6.95-6.25 31.48-6.98 42.12-0.34 0.04-0.57 0.05-1.14 0.03-1.73C93.57 81.5 91.95 72.05 74.38 72.05z" fill="#ffffff" stroke-width="none" opacity="0.4"></path><path id="SvgjsPath3434" d="M125.62 71.84c-15.58 0-18.72 7.28-19.28 9.27 -0.84-0.18-1.19-0.23-1.73-0.74 -2.59-2.44-6.69-2.37-9.21 0 -0.54 0.51-0.9 0.56-1.73 0.74 -0.56-1.99-3.7-9.27-19.28-9.27 -16.89 0-23.18 7.17-23.18 11.69 0 5.75 2.77 15.4 21.33 15.4 18.84 0 21.17-11.69 21.25-17.04 1.38-0.29 1.78-0.33 2.51-1.01 2.23-2.09 5.19-2.11 7.42 0 0.74 0.69 1.14 0.72 2.51 1.01 0.08 5.35 2.41 17.04 21.25 17.04 18.55 0 21.33-9.65 21.33-15.4C148.8 79.01 142.51 71.84 125.62 71.84zM72.53 98.22c-17.93-0.02-20.61-9.2-20.61-14.69 0-4.24 6.1-10.98 22.47-10.98 17 0 18.69 8.96 18.69 9.06C93.31 92.22 85.3 98.23 72.53 98.22zM127.47 98.22c-12.77 0.01-20.79-6-20.54-16.61 0-0.09 1.69-9.06 18.69-9.06 16.37 0 22.47 6.74 22.47 10.98C148.09 89.02 145.41 98.2 127.47 98.22z" fill="#26120b" stroke-width="none" opacity="1"></path></g></g></g><rect id="SvgjsRect1036" width="200" height="15" x="0" y="185" fill="#ecf0f1" opacity="0.5" style="display:none;"></rect><text id="SvgjsText1037" font-family="&quot;Roboto&quot;, &quot;Helvetica Neue&quot;, Helvetica, Arial, sans-serif" style="font-size:0.84em;font-family:&quot;Roboto&quot;, &quot;Helvetica Neue&quot;, Helvetica, Arial, sans-serif;text-anchor:middle;font-weight:400;display:none;" font-size="0.84em" text-anchor="middle" font-weight="400" fill="#000000" x="100" y="185"><tspan id="SvgjsTspan1038" dy="1.2em" x="100" style="font-size:0.84em;font-family:&quot;Roboto&quot;, &quot;Helvetica Neue&quot;, Helvetica, Arial, sans-serif;text-anchor:middle;font-weight:400;">Creato con creaavatar.it</tspan></text></g><defs id="SvgjsDefs1001"><radialGradient id="SvgjsRadialGradient2886" cx="100" cy="114" r="41" gradientUnits="userSpaceOnUse" class="svga-on-canvas-facehighlight-gradient-single-0"><stop id="SvgjsStop2887" stop-opacity="0.5" stop-color="#ffe2d6" offset="0" ></stop><stop id="SvgjsStop2888" stop-opacity="0" stop-color="#ffd0bc" offset="0.9" ></stop></radialGradient><radialGradient id="SvgjsRadialGradient2890" cx="100" cy="54" r="37" gradientUnits="userSpaceOnUse" class="svga-on-canvas-facehighlight-gradient-single-1"><stop id="SvgjsStop2891" stop-opacity="0.5" stop-color="#ffe2d6" offset="0" ></stop><stop id="SvgjsStop2892" stop-opacity="0" stop-color="#ffd0bc" offset="0.9" ></stop></radialGradient><linearGradient id="SvgjsLinearGradient3058" x1="100" y1="171" x2="100" y2="131" gradientUnits="userSpaceOnUse" class="svga-on-canvas-chinshadow-gradient-single-0"><stop id="SvgjsStop3059" stop-opacity="0.8" stop-color="#f0b399" offset="0" ></stop><stop id="SvgjsStop3060" stop-opacity="1" stop-color="#d17f5b" offset="0.7" ></stop></linearGradient><linearGradient id="SvgjsLinearGradient3067" x1="100" y1="142" x2="100" y2="139" gradientUnits="userSpaceOnUse" class="svga-on-canvas-mouth-gradient-single-0"><stop id="SvgjsStop3068" stop-opacity="1" stop-color="#f7c1aa" offset="0.1" ></stop><stop id="SvgjsStop3069" stop-opacity="1" stop-color="#f0b399" offset="1" ></stop></linearGradient><radialGradient id="SvgjsRadialGradient3314" cx="126.682" cy="84.862" r="13.37" gradientTransform="matrix(-1.0172 0 0 1.0172 202.5653 -1.4692)" gradientUnits="userSpaceOnUse" class="svga-on-canvas-eyesback-gradient-left-0"><stop id="SvgjsStop3315" stop-opacity="1" stop-color="#ffffff" offset="0" ></stop><stop id="SvgjsStop3316" stop-opacity="1" stop-color="#fdfefe" offset="0.544" ></stop><stop id="SvgjsStop3317" stop-opacity="1" stop-color="#f6f8f9" offset="0.74" ></stop><stop id="SvgjsStop3318" stop-opacity="1" stop-color="#eaeff2" offset="0.879" ></stop><stop id="SvgjsStop3319" stop-opacity="1" stop-color="#d9e3e8" offset="0.992" ></stop><stop id="SvgjsStop3320" stop-opacity="1" stop-color="#d8e2e7" offset="1" ></stop></radialGradient><radialGradient id="SvgjsRadialGradient3322" cx="126.289" cy="84.862" r="13.371" gradientTransform="matrix(1.0172 0 0 1.0172 -2.5653 -1.4692)" gradientUnits="userSpaceOnUse" class="svga-on-canvas-eyesback-gradient-right-0"><stop id="SvgjsStop3323" stop-opacity="1" stop-color="#ffffff" offset="0" ></stop><stop id="SvgjsStop3324" stop-opacity="1" stop-color="#fdfefe" offset="0.544" ></stop><stop id="SvgjsStop3325" stop-opacity="1" stop-color="#f6f8f9" offset="0.74" ></stop><stop id="SvgjsStop3326" stop-opacity="1" stop-color="#eaeff2" offset="0.879" ></stop><stop id="SvgjsStop3327" stop-opacity="1" stop-color="#d9e3e8" offset="0.992" ></stop><stop id="SvgjsStop3328" stop-opacity="1" stop-color="#d8e2e7" offset="1" ></stop></radialGradient><radialGradient id="SvgjsRadialGradient3330" cx="126.682" cy="84.862" r="13.37" gradientTransform="matrix(-1.0172 0 0 1.0172 202.5653 -1.4692)" gradientUnits="userSpaceOnUse" class="svga-on-canvas-eyesfront-gradient-left-0"><stop id="SvgjsStop3331" stop-opacity="1" stop-color="#ffffff" offset="0" ></stop><stop id="SvgjsStop3332" stop-opacity="1" stop-color="#fdfefe" offset="0.544" ></stop><stop id="SvgjsStop3333" stop-opacity="1" stop-color="#f6f8f9" offset="0.74" ></stop><stop id="SvgjsStop3334" stop-opacity="1" stop-color="#eaeff2" offset="0.879" ></stop><stop id="SvgjsStop3335" stop-opacity="1" stop-color="#d9e3e8" offset="0.992" ></stop><stop id="SvgjsStop3336" stop-opacity="1" stop-color="#d8e2e7" offset="1" ></stop></radialGradient><radialGradient id="SvgjsRadialGradient3340" cx="122.115" cy="84.345" fx="133.972" fy="84.379" r="16.863" gradientTransform="matrix(0.9998 0.0208 0.0166 -0.7998 -45.6081 149.2658)" gradientUnits="userSpaceOnUse" class="svga-on-canvas-eyesfront-gradient-left-3"><stop id="SvgjsStop3341" stop-opacity="1" stop-color="#f0b399" offset="0" ></stop><stop id="SvgjsStop3342" stop-opacity="0.3" stop-color="#f0b399" offset="0.7" ></stop><stop id="SvgjsStop3343" stop-opacity="0" stop-color="#ffd0bc" offset="1" ></stop></radialGradient><radialGradient id="SvgjsRadialGradient3345" cx="72.882" cy="102.392" r="22.097" gradientTransform="matrix(1.0455 -0.0545 0.0548 1.0391 -8.9534 0.4299)" gradientUnits="userSpaceOnUse" class="svga-on-canvas-eyesfront-gradient-left-4"><stop id="SvgjsStop3346" stop-opacity="0" stop-color="#000000" offset="0.95" ></stop><stop id="SvgjsStop3347" stop-opacity="0.2" stop-color="#000000" offset="1" ></stop></radialGradient><radialGradient id="SvgjsRadialGradient3351" cx="126.289" cy="84.862" r="13.371" gradientTransform="matrix(1.0172 0 0 1.0172 -2.5653 -1.4692)" gradientUnits="userSpaceOnUse" class="svga-on-canvas-eyesfront-gradient-right-0"><stop id="SvgjsStop3352" stop-opacity="1" stop-color="#ffffff" offset="0" ></stop><stop id="SvgjsStop3353" stop-opacity="1" stop-color="#fdfefe" offset="0.544" ></stop><stop id="SvgjsStop3354" stop-opacity="1" stop-color="#f6f8f9" offset="0.74" ></stop><stop id="SvgjsStop3355" stop-opacity="1" stop-color="#eaeff2" offset="0.879" ></stop><stop id="SvgjsStop3356" stop-opacity="1" stop-color="#d9e3e8" offset="0.992" ></stop><stop id="SvgjsStop3357" stop-opacity="1" stop-color="#d8e2e7" offset="1" ></stop></radialGradient><radialGradient id="SvgjsRadialGradient3361" cx="121.716" cy="84.345" fx="133.573" fy="84.379" r="16.863" gradientTransform="matrix(-0.9998 0.0208 -0.0166 -0.7998 244.8094 149.2741)" gradientUnits="userSpaceOnUse" class="svga-on-canvas-eyesfront-gradient-right-3"><stop id="SvgjsStop3362" stop-opacity="1" stop-color="#f0b399" offset="0" ></stop><stop id="SvgjsStop3363" stop-opacity="0.3" stop-color="#f0b399" offset="0.7" ></stop><stop id="SvgjsStop3364" stop-opacity="0" stop-color="#ffd0bc" offset="1" ></stop></radialGradient><radialGradient id="SvgjsRadialGradient3366" cx="73.264" cy="102.408" r="22.097" gradientTransform="matrix(-1.0455 -0.0545 -0.0548 1.0391 208.9532 0.4342)" gradientUnits="userSpaceOnUse" class="svga-on-canvas-eyesfront-gradient-right-4"><stop id="SvgjsStop3367" stop-opacity="0" stop-color="#000000" offset="0.95" ></stop><stop id="SvgjsStop3368" stop-opacity="0.2" stop-color="#000000" offset="1" ></stop></radialGradient><radialGradient id="SvgjsRadialGradient3373" cx="-568.659" cy="-521.042" r="59.751" gradientTransform="matrix(0.096 -0.0248 0.0245 0.0961 141.2814 119.9893)" gradientUnits="userSpaceOnUse" class="svga-on-canvas-eyesiris-gradient-left-1"><stop id="SvgjsStop3374" stop-opacity="1" stop-color="#ffffff" offset="0" ></stop><stop id="SvgjsStop3375" stop-opacity="0" stop-color="#ffffff" offset="1" ></stop></radialGradient><radialGradient id="SvgjsRadialGradient3377" cx="-582.838" cy="-519.099" r="59.745" gradientTransform="matrix(0.0991 8.856319e-004 -0.0011 0.0991 131.1134 135.9855)" gradientUnits="userSpaceOnUse" class="svga-on-canvas-eyesiris-gradient-left-2"><stop id="SvgjsStop3378" stop-opacity="1" stop-color="#ffffff" offset="0" ></stop><stop id="SvgjsStop3379" stop-opacity="0" stop-color="#ffffff" offset="1" ></stop></radialGradient><linearGradient id="SvgjsLinearGradient3383" x1="122.67" y1="88.268" x2="123.606" y2="87.152" gradientTransform="matrix(1 0 0 1 -52 0)" gradientUnits="userSpaceOnUse" class="svga-on-canvas-eyesiris-gradient-left-5"><stop id="SvgjsStop3384" stop-opacity="1" stop-color="#ffffff" offset="0" ></stop><stop id="SvgjsStop3385" stop-opacity="0" stop-color="#ffffff" offset="1" ></stop></linearGradient><linearGradient id="SvgjsLinearGradient3387" x1="127.212" y1="82.296" x2="126.463" y2="83.189" gradientTransform="matrix(1 0 0 1 -52 0)" gradientUnits="userSpaceOnUse" class="svga-on-canvas-eyesiris-gradient-left-6"><stop id="SvgjsStop3388" stop-opacity="1" stop-color="#ffffff" offset="0" ></stop><stop id="SvgjsStop3389" stop-opacity="0" stop-color="#ffffff" offset="1" ></stop></linearGradient><linearGradient id="SvgjsLinearGradient3391" x1="129.636" y1="79.822" x2="127.91" y2="81.879" gradientTransform="matrix(1 0 0 1 -52 0)" gradientUnits="userSpaceOnUse" class="svga-on-canvas-eyesiris-gradient-left-7"><stop id="SvgjsStop3392" stop-opacity="1" stop-color="#ffffff" offset="0" ></stop><stop id="SvgjsStop3393" stop-opacity="0" stop-color="#ffffff" offset="1" ></stop></linearGradient><radialGradient id="SvgjsRadialGradient3396" cx="-568.654" cy="-521.042" r="59.752" gradientTransform="matrix(0.096 -0.0248 0.0245 0.0961 193.2804 119.9894)" gradientUnits="userSpaceOnUse" class="svga-on-canvas-eyesiris-gradient-right-1"><stop id="SvgjsStop3397" stop-opacity="1" stop-color="#ffffff" offset="0" ></stop><stop id="SvgjsStop3398" stop-opacity="0" stop-color="#ffffff" offset="1" ></stop></radialGradient><radialGradient id="SvgjsRadialGradient3400" cx="-582.833" cy="-519.102" r="59.747" gradientTransform="matrix(0.0991 8.856319e-004 -0.0011 0.0991 183.1126 135.9856)" gradientUnits="userSpaceOnUse" class="svga-on-canvas-eyesiris-gradient-right-2"><stop id="SvgjsStop3401" stop-opacity="1" stop-color="#ffffff" offset="0" ></stop><stop id="SvgjsStop3402" stop-opacity="0" stop-color="#ffffff" offset="1" ></stop></radialGradient><linearGradient id="SvgjsLinearGradient3406" x1="122.67" y1="88.268" x2="123.606" y2="87.152" gradientUnits="userSpaceOnUse" class="svga-on-canvas-eyesiris-gradient-right-5"><stop id="SvgjsStop3407" stop-opacity="1" stop-color="#ffffff" offset="0" ></stop><stop id="SvgjsStop3408" stop-opacity="0" stop-color="#ffffff" offset="1" ></stop></linearGradient><linearGradient id="SvgjsLinearGradient3410" x1="127.212" y1="82.296" x2="126.463" y2="83.189" gradientUnits="userSpaceOnUse" class="svga-on-canvas-eyesiris-gradient-right-6"><stop id="SvgjsStop3411" stop-opacity="1" stop-color="#ffffff" offset="0" ></stop><stop id="SvgjsStop3412" stop-opacity="0" stop-color="#ffffff" offset="1" ></stop></linearGradient><linearGradient id="SvgjsLinearGradient3414" x1="129.636" y1="79.822" x2="127.91" y2="81.879" gradientUnits="userSpaceOnUse" class="svga-on-canvas-eyesiris-gradient-right-7"><stop id="SvgjsStop3415" stop-opacity="1" stop-color="#ffffff" offset="0" ></stop><stop id="SvgjsStop3416" stop-opacity="0" stop-color="#ffffff" offset="1" ></stop></linearGradient></defs></svg>