<svg xmlns="http://www.w3.org/2000/svg" version="1.1" width="800px" height="800px" xlink="http://www.w3.org/1999/xlink" style="overflow:hidden!important;"><g id="svga-group-wrapper" transform="scale(4 4)"><g id="svga-group-backs-single"></g><g id="svga-group-subwrapper" ><g id="svga-group-hair-back" ><path id="SvgjsPath3725" d="M38.058 105.866c-4.527-10.708-3.86-15.133-2.654-23.504 -2.078 2.251-3.322 5.27-6.713 8.063 0.263-2.006 4.269-13.639 4.587-14.493 -3.844 3.504-5.969 4.251-7.809 4.972 1.242-1.853 2.066-4.007 3.9-7.933h11.529c0.231 4.281 1.066 9.569 2.312 14.214C42.551 87.622 40.819 90.365 38.058 105.866zM158.91 74.599c-0.047 3.839-1.342 11.034-2.908 15.869 0.805 0.541 1.743 1.173 1.539 1.009 5.951 4.778 6.908 5.603 7.514 13.386 4.324-9.33 0.656-21.307 0.439-30.263H158.91zM165.502 74.599h4.441c-0.582 1.969-1.936 4.788-3.422 6.633C165.963 79.067 165.656 75.986 165.502 74.599z" fill="#976f50" stroke-width="none" opacity="1" stroke="none"></path><path id="SvgjsPath3726" d="M34.21 74.635c-3.399 8.93-3.599 11.16-5.399 15.54 2.85-2.348 4.987-6.981 6.9-8.22 -0.33 3.02-1.9 9.12-0.15 15.8 0.66 2.53 1.5 4.98 2.511 7.37 0.26-3.56 0.79-13.93 4.079-17.08 -2.26 5.95-3.55 13.73-3.55 19.8 -6.41-11.17-4.939-17.3-3.43-25.09 -2.34 2.67-3 6.01-7.49 8.73 1.53-3.23 2.021-7.07 5.19-14.94 -2.63 2.63-4.4 3.68-7.91 4.72 1.318-2.181 2.478-4.946 3.497-7.194h1.082c-0.999 2.154-2.031 4.326-3.289 6.204C28.881 79.245 31.4 77.325 34.21 74.635zM156.002 90.468c0.216 0.149 1.676 1.152 2.332 1.728 2.736 2.402 6.264 4.594 6.018 15.28 4.543-7.848 3.954-19.464 2.539-25.79 2.017-2.169 3.379-4.842 4.074-7.094l-1.203-0.011c-0.582 1.969-1.655 4.34-3.141 6.185 -0.56-2.165-0.865-4.579-1.019-5.966l-0.108-0.2c0.217 8.956 3.115 19.588-0.243 29.516C164.645 96.333 162.841 94.915 156.002 90.468z" fill="#784b28" stroke-width="none" opacity="1" stroke="none"></path></g><g id="svga-group-humanbody-single"><path id="SvgjsPath2893" d="M195.417 199.778c-2.196-4.746-8.195-11.779-14.86-13.722 -8.239-2.403-26.837-5.308-33.733-6.923 -5.528-1.296-16.662-11.294-20.564-14.65 -0.7-0.6-1.273-1.839-1.287-2.76 -0.139-10.864 4.195-39.724 4.195-39.724H100 70.833c0 0 4.334 28.859 4.193 39.724 -0.011 0.921-0.587 2.16-1.285 2.76 -3.902 3.356-15.036 13.354-20.564 14.65 -6.897 1.615-25.495 4.619-33.733 7.022 -6.667 1.942-12.664 8.876-14.86 13.622 -3.708 8.008-4.584 22.5-4.584 35h100 100C200 222.278 199.123 207.786 195.417 199.778z" fill="#e9b995" stroke-width="none" opacity="1" stroke="none"></path><path id="SvgjsPath2894" d="M159.156 184.058c24.342 3.542 34.586 8.708 37.794 50.721H200c0-12.5-0.877-26.992-4.583-35 -2.196-4.746-8.195-11.779-14.86-13.722 -8.239-2.403-26.837-5.308-33.733-6.923 -5.528-1.296-18.242-12.069-21.643-16.35 3.36 4.704 12.791 15.605 21.054 18.46C150.188 182.61 153.48 183.232 159.156 184.058zM53.766 181.244c8.263-2.854 17.693-13.756 21.054-18.46 -3.4 4.28-16.114 15.054-21.643 16.35 -6.896 1.615-25.494 4.619-33.733 7.022 -6.665 1.942-12.664 8.876-14.86 13.622 -3.706 8.008-4.583 22.5-4.583 35h3.05c3.188-41.744 13.475-47.183 37.794-50.721C46.52 183.232 49.813 182.61 53.766 181.244z" fill="#f8d3b8" stroke-width="none" opacity="1" stroke="none"></path><path id="SvgjsPath2895" d="M95.646 197.62c0 0-5.074-1.609-7.083-2.379 -10.449-4.009-44.395-6.607-44.395-6.607s35.754 1.419 43.644 2.779c-0.458-4.767-3.017-20.004-3.017-20.004s5.149 16.815 6.409 21.057C91.878 194.734 95.646 197.62 95.646 197.62zM106.445 196.278c-0.089 0.073-0.191 0.168-0.302 0.268C106.256 196.461 106.358 196.372 106.445 196.278zM95.646 197.62c0 0 2.893 2.992 4.347 3.03 1.91 0.051 4.828-2.899 6.151-4.104 -1.265 0.957-4.159 1.391-5.31 1.436C99.504 198.033 95.646 197.62 95.646 197.62zM116.664 190.101c-1.545 0.248-4.386 0.789-4.386 0.789l2.287-14.89c-0.646 3.071-4.474 16.211-8.12 20.278 1.91-1.616 6.158-2.391 8.324-2.704 10.236-1.484 10.232-1.483 41.062-4.94C155.831 188.634 126.76 188.479 116.664 190.101z" fill="#daa075" stroke-width="none" opacity="1" stroke="none"></path><path id="SvgjsPath2896" d="M195.417 199.778c-2.196-4.746-8.195-11.779-14.86-13.722 -8.239-2.403-26.837-5.308-33.733-6.923 -5.528-1.296-16.662-11.294-20.564-14.65 -0.7-0.6-1.273-1.839-1.287-2.76 -0.139-10.864 4.195-39.724 4.195-39.724H100 70.833c0 0 4.334 28.859 4.193 39.724 -0.011 0.921-0.587 2.16-1.285 2.76 -3.902 3.356-15.036 13.354-20.564 14.65 -6.897 1.615-25.495 4.619-33.733 7.022 -6.667 1.942-12.664 8.876-14.86 13.622 -3.708 8.008-4.584 22.5-4.584 35h100 100C200 222.278 199.123 207.786 195.417 199.778z" fill="none" stroke="#bb7440" stroke-width="1.5" opacity="1"></path></g><g id="svga-group-chinshadow-single"><path id="SvgjsPath3544" d="M109.536 170.861c4.446-1.662 9.623-5.664 14.692-10.57 0.134-7.874 1.927-22.141 3.129-30.907 -15.727-1.816-38.988-1.81-54.712 0.013 1.201 8.766 2.992 23.017 3.125 30.887 5.071 4.909 10.251 8.915 14.699 10.578C94.942 172.534 105.063 172.534 109.536 170.861z" fill="url(#SvgjsLinearGradient3545)" opacity="1"></path></g><g id="svga-group-clothes-single" ><path id="SvgjsPath3764" d="M197.798 201.546c-10.478-20.278-30.653-17.404-49.968-22.843 -0.468 3.585-13.251 20.479-16.287 30.061 -1.705-1.423-3.74-3.325-5.209-5.066 -7.188-8.443-17.841-35.76-21.416-14.428 0.777-9.576 5.003-11.686 10.871-3.659 6.308 8.638 6.542 13.098 15.542 22.491 1.59-6.601 5.032-11.259 9.036-17.104 3.875-5.663 6.705-8.217 7.119-13.258 -1.445-2.408-1.099-3.486-3.434-5.046 -14.655-9.912-4.192-19.97-17.476-22.365 -0.104 1.198-0.235 2.54-0.345 3.549 2.841 1.462 3.691 7.152-0.683 11.318 -6.951 7.631-18.12 8.01-21.032 19.723l-0.007-0.001c-0.927 3.477-1.669 8.799-2.021 11.919l-2.455 24.898 -2.47-24.457c-2.003-18.359-4.621-20.155-13.183-25.828 -5.673-3.76-14.943-9.433-11.917-15.847 0.345-0.742 0.765-1.198 1.286-1.541 -0.15-1.466-0.238-2.316-0.354-3.678 -10.967 0.467-9.281 15.982-17.586 21.69 -2.177 1.496-3.287 2.879-4.068 5.129 0.531 6.281 14.504 20.476 16.945 30.899 9.085-9.592 9.155-13.783 15.5-22.459 5.465-7.465 9.928-6.699 10.867 3.403 -0.516-3.035-1.738-7.681-4.386-7.681 -2.182 0-4.456 3.218-5.581 4.771 -6.299 8.678-7.311 14.885-16.647 22.633 -0.646-1.941-1.404-3.891-2.308-5.706 -3.7-7.474-13.719-22.555-14.858-24.017 -4.428 1.246-11.177 2.626-15.233 3.3 -26.504 4.411-36.778 12.969-40.685 53.031 97.202-0.984 136.811-0.556 209.21-0.556C203.66 225.907 201.881 209.46 197.798 201.546z" fill="#3f82a4" stroke-width="none" opacity="1" stroke="none"></path><path id="SvgjsPath3765" d="M139.969 190.783c-3.461 5.054-6.201 9.3-7.908 14.621 1.967-10.979 14.436-21.374 13.086-27.939 -0.578-2.812-10.526-9.081-11.041-18.4 2.745 8.538 12.992 14.632 13.009 18.723C147.142 184.482 146.942 180.595 139.969 190.783zM204.486 234.028c0.347-8.682-2.572-25.584-6.19-32.598 -10.478-20.278-31.563-17.691-50.877-23.13 -0.171 0.218 0.49 1.66 0.027 2.28C192.595 188.9 197.736 198.817 204.486 234.028zM55.812 172.075c5.547-4.597 7.21-9.05 8.483-13.011 -2.85 16.28-7.111 10.123-10.22 18.276 -1.778 4.663 12.003 17.403 13.866 28.063 -2.442-4.175-5.06-9.313-8.521-14.367 -2.694-3.937-4.41-7.537-7.079-10.567C51.069 173.756 53.696 173.829 55.812 172.075zM52.34 180.47c-0.463-0.62-0.894-1.204-1.065-1.422 -19.314 5.438-38.594 2.104-49.071 22.383 -3.619 7.014-5.426 21.363-6.423 30.064 1.929-10.573 4.804-23.893 10.963-31.929C17.188 185.399 36.46 182.665 52.34 180.47z" fill="#5794b3" stroke-width="none" opacity="1" stroke="none"></path><path id="SvgjsPath3766" d="M119.848 171.392c-4.863 2.82-8.981 5.588-11.713 9.481 6.567 0.362 11.421 12.099 12.734 13.695 -12.333-17.166-17-5.5-18.5 5.432 0.432-3.546 0.787-9.596 1.487-12.193 0.204-1.033 0.423-2.021 0.654-2.889l0.007 0.001c2.912-11.713 14.081-12.092 21.032-19.723 4.374-4.166 3.523-9.856 0.683-11.318 0.109-1.009 0.241-2.351 0.345-3.549 0.729 0.133 1.379 0.292 1.982 0.469C137.518 158.679 125.96 168.657 119.848 171.392zM78.965 171.392c4.864 2.82 10.812 6.162 13.536 9.717 -4.798-0.873-10.131 6.294-12.798 12.627 11.5-14.667 15-6.333 18.667 6.265 -0.431-3.545-1.524-9.596-2.224-12.193 -0.204-1.033-0.422-2.021-0.654-2.889l-0.006 0.001c-2.912-11.713-13.682-12.092-20.633-19.723 -4.374-4.166-3.622-9.856-0.781-11.318 -0.109-1.009-0.24-2.351-0.344-3.549 -0.729 0.133-1.379 0.292-1.982 0.469C64.238 159.967 73.472 168.06 78.965 171.392z" fill="#2a7195" stroke-width="none" opacity="1" stroke="none"></path><path id="SvgjsPath3767" d="M125.876 163.323c0.031-5.701-0.159-2.538 0.418-8.99C128.518 155.526 128.801 160.423 125.876 163.323zM74.139 162.784c-2.323-3.04-2.61-6.145-0.347-8.49C74.334 159.352 74.059 158.742 74.139 162.784z" fill="#196185" stroke-width="none" opacity="1" stroke="none"></path><path id="SvgjsPath3768" d="M147.624 176.915c-0.206-3.542-7.813-6.496-11.188-14.175 -2.417-5.47-0.123-11.734-10.065-12.741 -0.545 3.187-1.028 10.193-0.883 13.579 -5.038 5.423-12.831 6.826-17.785 12.657 -5.288 6.224-7.58 19.7-7.667 47.667l1.232-0.801c0 0 1.372-26.485 1.382-26.563 3.084-26.427 12.888-20.185 22.979-31.263 4.521-4.332 3.441-10.072 0.722-11.463 0.118-1.12 0.228-2.229 0.325-3.35 8.552 1.571 6.109 6.605 8.784 12.753 3.556 8.174 10.297 9.959 10.732 13.923 0.69 6.281-3.058 8.947-6.817 14.434 -5.913 8.559-7.28 12.925-8.101 16.308 -8.975-9.426-8.98-13.558-15.398-22.338 -6.844-9.366-11.339-4.974-13.226 10.996 0.194-2.625 3.77-17.175 8.043-14.651 4.939 2.878 9.791 15.108 15.561 21.886 1.539 1.823 3.521 3.652 5.345 5.182 3.407-11.897 16-24.465 16.408-30.205 19.695 5.556 53.439-0.145 56.441 55.963 -41.138 0.22-85.815-0.682-208.97 0.554 1.785-18.437 4.804-36.508 15.723-44.653 4.685-3.507 10.117-5.341 15.712-6.508 7.797-1.616 16.522-2.655 24.253-4.747 0.788 1 14.205 21.198 17.224 29.597 10.863-8.503 15.207-24.459 21.188-27.214 4.164-1.913 7.559 11.938 7.753 14.553 -1.63-16.891-6.95-22.418-17.024-4.923 -4.964 8.624-6.28 10.962-11.56 16.51 -2.12-8.994-16.895-25.954-16.253-30.662 0.634-4.646 6.314-3.363 10.098-13.244 2.122-5.54 1.652-11.648 10.708-13.455 0.098 1.167 0.217 2.32 0.336 3.486 -2.479 1.631-3.109 7.111 0.852 10.942 3.567 4.085 10.004 6.416 14.255 9.676 5.011 3.867 6.993 7.827 8.588 21.67 0.035 0.302 1.37 26.942 1.37 26.942l1.333 0.667c-0.667-27.833-3.335-44.568-8.721-49.258 -4.652-4.15-12.775-6.796-16.717-11.429 0.12-3.476-0.565-10.518-0.993-13.171 -9.009 0.918-9.264 6.638-11.196 11.632 -5.165 13.351-10.134 9.527-10.957 15.059 -0.077 0.517 0.042 0.906 0.167 1.594 -7.58 1.548-17.04 2.563-24.641 3.953 -11.343 2.071-22.045 8.058-26.925 19.452 -3.707 8.647-4.781 24.051-5.053 33.543 -0.011 0.068-0.011 0.147-0.011 0.215 0.152 0.012 0.314 0.012 0.466 0.012 130.475 1.387 208.449-0.578 209.534-0.578C205.369 181.568 176.202 183.902 147.624 176.915zM125.976 163.024c0.016-2.933 0.105-6.329 0.318-8.691C127.892 155.473 129.133 159.262 125.976 163.024zM74.088 162.593c-2.652-3.471-1.6-6.836-0.396-8C73.943 156.939 74.042 160.224 74.088 162.593z" fill="#0a5276" stroke-width="none" opacity="1" stroke="none"></path></g><g id="svga-group-head" ><g id="svga-group-ears-left" ><path id="SvgjsPath3562" d="M45.443 82.722c-1.469-2.433-6.648-7.545-10.31-6.61 -2.979 0.762-6.032 3.243-6.032 7.473 -0.001 6.553 1.496 9.338 2.501 12.311 0.856 2.53 3.915 7.167 5.761 8.964 2.273 2.208 5.957 9.35 6.404 10.079 0.705 1.154 1.877 2.988 4.043 3.057 3.29 0.104 7.085-2.105 7.323-3.488C56.42 107.009 49.263 89.052 45.443 82.722z" fill="#e9b995" stroke="#bb7440" stroke-width="1.5" opacity="1"></path><path id="SvgjsPath3563" d="M43.596 99.086c-0.142-0.558 0.007-1.495 0.152-2.4 0.131-0.826 0.255-1.605 0.18-2.157 -0.285-2.064-1.892-5.988-2.942-8.115 -1.208-2.446-4.117-5.528-6.568-6.322 -1.013-0.329-1.681 0.064-2.067 0.463 -0.284 0.293-0.347 0.637-0.254 0.678 0.093 0.041 0.304-0.244 0.61-0.513 0.25-0.22 0.617-0.408 1.122-0.369 -0.203 1.028-3.138 4.222-1.381 10.392 0.822 2.888 1.992 5.214 2.202 5.549 0.032 0.352 0.083 0.696 0.159 1.031 0.991 4.357 7.286 11.54 8.785 13.162 0.277 0.3 0.567 0.477 0.639 0.406 0.072-0.072-0.1-0.368-0.376-0.671 -1.48-1.611-7.734-8.777-8.69-12.981 -1.754-7.702 1.916-7.832 4.499-12.473 0.397 0.657 0.733 1.288 0.993 1.814 0.203 0.413 0.429 0.896 0.661 1.417 -0.458 0.729-5.059 6.055-3.889 10.317 0.433 1.572 3.779 3.598 5.073 4.153 0.712 0.306 0.979 0.763 1.289 1.291 0.359 0.613 0.767 2.796 1.95 3.298 0.241 0.103 0.458 0.146 0.651 0.146 0.334 0 0.587-0.128 0.774-0.28 0.019 0.267 0.018 0.612 0.008 0.93 -0.011 0.411 0.046 0.748 0.147 0.756s0.208-0.317 0.221-0.727c0.016-0.504 0.014-1.128-0.077-1.426 -0.265-0.88-1.076-1.871-1.934-2.921C44.688 102.503 43.815 99.947 43.596 99.086zM34.616 95.223c-2.322-6.84 0.993-12.744 1.514-13.684 0.908 0.787 2.662 1.841 3.314 2.87C36.33 89.804 34.811 86.051 34.616 95.223zM45.884 106.717c-1.072-0.455-1.431-2.555-1.778-3.147 -0.314-0.536-0.639-1.089-1.461-1.443 -0.179-0.077-0.376-0.194-0.578-0.328 -3.861-5.758 0.291-8.626 1.027-9.163 0.226 0.734 0.396 1.407 0.47 1.946 0.068 0.496-0.058 1.284-0.179 2.045 -0.15 0.944-0.306 1.92-0.145 2.553 0.24 0.941 1.14 3.529 2.01 4.594 0.772 0.945 1.564 1.919 1.835 2.713C46.97 106.645 46.604 107.022 45.884 106.717z" fill="#bb7440" stroke-width="none" opacity="1"></path></g><g id="svga-group-ears-right" ><path id="SvgjsPath3564" d="M154.295 82.722c1.469-2.433 6.648-7.545 10.311-6.61 2.979 0.762 6.031 3.243 6.031 7.473 0.002 6.553-1.496 9.338-2.5 12.311 -0.857 2.53-3.916 7.167-5.762 8.964 -2.273 2.208-5.957 9.35-6.404 10.079 -0.705 1.154-1.877 2.988-4.043 3.057 -3.291 0.104-7.086-2.105-7.324-3.488C143.318 107.009 150.475 89.052 154.295 82.722z" fill="#e9b995" stroke="#bb7440" stroke-width="1.5" opacity="1"></path><path id="SvgjsPath3565" d="M154.205 103.536c-0.857 1.05-1.668 2.041-1.934 2.921 -0.09 0.298-0.092 0.922-0.076 1.426 0.014 0.409 0.119 0.734 0.221 0.727s0.158-0.345 0.146-0.756c-0.01-0.317-0.01-0.663 0.01-0.93 0.186 0.152 0.439 0.28 0.773 0.28 0.193 0 0.41-0.043 0.65-0.146 1.184-0.502 1.592-2.686 1.951-3.298 0.311-0.528 0.576-0.985 1.289-1.291 1.293-0.555 4.639-2.581 5.072-4.153 1.17-4.262-3.432-9.588-3.889-10.317 0.232-0.522 0.457-1.004 0.66-1.417 0.26-0.526 0.596-1.157 0.994-1.814 2.582 4.641 6.252 4.771 4.498 12.473 -0.957 4.204-7.209 11.37-8.689 12.981 -0.275 0.303-0.447 0.599-0.377 0.671 0.072 0.07 0.361-0.106 0.639-0.406 1.5-1.622 7.795-8.805 8.785-13.162 0.076-0.334 0.129-0.679 0.16-1.031 0.209-0.334 1.379-2.661 2.201-5.549 1.758-6.17-1.178-9.364-1.381-10.392 0.504-0.039 0.871 0.149 1.123 0.369 0.305 0.269 0.518 0.553 0.609 0.513 0.094-0.041 0.029-0.385-0.254-0.678 -0.387-0.399-1.055-0.792-2.068-0.463 -2.451 0.794-5.359 3.876-6.568 6.322 -1.049 2.126-2.656 6.05-2.941 8.115 -0.074 0.552 0.049 1.331 0.18 2.157 0.145 0.906 0.293 1.843 0.152 2.4C155.924 99.947 155.051 102.503 154.205 103.536zM160.295 84.409c0.652-1.029 2.406-2.083 3.313-2.87 0.521 0.939 3.836 6.843 1.516 13.684C164.928 86.051 163.408 89.804 160.295 84.409zM152.652 106.486c0.271-0.794 1.064-1.768 1.836-2.713 0.869-1.065 1.77-3.653 2.01-4.594 0.16-0.632 0.006-1.608-0.145-2.553 -0.121-0.761-0.248-1.55-0.18-2.045 0.074-0.539 0.244-1.212 0.471-1.946 0.734 0.537 4.887 3.405 1.025 9.163 -0.201 0.134-0.398 0.251-0.578 0.328 -0.822 0.354-1.146 0.908-1.461 1.443 -0.346 0.592-0.705 2.692-1.777 3.147C153.135 107.022 152.768 106.645 152.652 106.486z" fill="#bb7440" stroke-width="none" opacity="1"></path></g><g id="svga-group-faceshape-wrap" ><g id="svga-group-faceshape-single" ><path id="SvgjsPath3541" d="M144.004 126.306c-6.87 10.846-23.072 30.329-34.468 34.563 -4.474 1.663-14.594 1.663-19.067 0 -11.396-4.235-27.596-23.719-34.467-34.563 -6.753-10.657-14.852-48.287-14.863-48.341 -1.3-4.961-1.996-10.168-2.004-15.538C39.082 28.614 66.289 1.169 99.907 1.116c33.621-0.053 60.913 27.306 60.963 61.119 0.009 5.37-0.669 10.579-1.952 15.544C158.901 77.832 150.78 115.606 144.004 126.306z" fill="#e9b995" stroke-width="none" opacity="1" stroke="none"></path><path id="SvgjsPath3542" d="M110.152 1.978c26.994 6.303 47.097 30.644 47.052 59.708 -0.009 5.369-0.704 10.577-2.004 15.537 -0.012 0.054-7.377 37.684-14.13 48.341 -6.872 10.844-22.339 29.588-33.734 33.823 -1.476 0.549-5.027 1.103-7.334 1.103 -2.307 0-5.857-0.554-7.333-1.103 -11.396-4.235-26.863-22.979-33.734-33.823 -6.753-10.657-14.119-48.287-14.13-48.341 -1.3-4.96-1.996-10.168-2.004-15.537C42.756 32.622 62.857 8.281 89.853 1.978 61.03 6.845 39.087 32.061 39.134 62.427c0.008 5.369 0.704 10.576 2.004 15.538 0.012 0.054 8.11 37.684 14.863 48.341 6.871 10.845 23.072 30.328 34.467 34.563 2.239 0.833 5.889 1.247 9.537 1.244 3.646 0.001 7.292-0.411 9.53-1.244 11.396-4.235 27.596-23.719 34.468-34.563 6.753-10.657 14.852-48.287 14.862-48.341 1.3-4.961 1.996-10.168 2.004-15.538C160.918 32.061 138.975 6.845 110.152 1.978z" fill="#e1ac85" stroke-width="none" opacity="1" stroke="none"></path><path id="SvgjsPath3543" d="M144.004 126.306c-6.87 10.846-23.072 30.329-34.468 34.563 -4.474 1.663-14.594 1.663-19.067 0 -11.396-4.235-27.596-23.719-34.467-34.563 -6.753-10.657-14.852-48.287-14.863-48.341 -1.3-4.961-1.996-10.168-2.004-15.538C39.082 28.614 66.289 1.169 99.907 1.116c33.621-0.053 60.913 27.306 60.963 61.119 0.009 5.37-0.669 10.579-1.952 15.544C158.901 77.832 150.78 115.606 144.004 126.306z" fill="none" stroke="#bb7440" stroke-width="1.5" opacity="1"></path></g></g><g id="svga-group-mouth-single" ><path id="SvgjsPath3548" d="M99.825 142.068c-3.24 0-4.753-2.802-4.753-2.802s4.797 0.781 9.279-0.064C104.352 139.202 102.675 142.068 99.825 142.068z" fill="url(#SvgjsLinearGradient3549)" opacity="1"></path><path id="SvgjsPath3552" d="M95.211 139.349c-0.132-0.039-0.23-0.149-0.208-0.285 0.021-0.137 0.151-0.224 0.286-0.209 3.612 0.857 5.963 0.661 8.766-0.043 0.145-0.035 0.27 0.062 0.297 0.195s-0.063 0.256-0.193 0.296C101.098 140.207 98.142 140.241 95.211 139.349zM85.447 133.958c0.313-0.144 0.582-0.086 1.073-0.115 1.419-0.249 3.128-0.323 4.54-0.611 1.348-0.274 2.774-0.662 4.158-0.597 1.488 0.071 2.879 0.669 4.353 0.829 1.401 0.151 2.708-0.229 4.053-0.557 1.542-0.376 3.01-0.287 4.56 0.006 1.938 0.363 3.774 0.857 5.689 1.038 0.582 0.055 0.365 0.413 0.032 0.454 -1.713 0.205-3.431-0.068-5.194-0.249 -1.425-0.146-2.868-0.329-4.274 0.021 -1.518 0.379-3.437 0.822-4.605 0.808 -1.3-0.017-2.521-0.538-3.784-0.807 -1.551-0.327-3.091-0.02-4.647 0.143 -1.938 0.201-3.672 0.34-5.579 0.047C85.312 134.29 85.306 134.023 85.447 133.958z" fill="#bb7440" stroke-width="none" opacity="1"></path></g><g id="svga-group-eyes-left" ><g id="svga-group-eyesback-left"><path id="SvgjsPath3628" d="M83.071 89.125c-3.293-0.784-4.969 1.059-9.809 1.166 -8.057 0.177-9.938-0.618-11.199-2.638 -0.523-0.837-1.023-1.928-1.264-2.601l-0.1-4.149c1.328-3.949 19.541-4.352 25.9 1.784 0.287 0.666 0.433 1.287 0.465 1.867 -0.19 0.958-0.512 1.878-0.947 2.749C85.411 88.113 84.355 88.729 83.071 89.125z" fill="url(#SvgjsRadialGradient3629)" opacity="1"></path></g><g id="svga-group-eyesiriswrapper-left" transform="translate(0.25 0.25)"><g id="svga-group-eyesiriscontrol-left" ><g id="svga-group-eyesiris-left" ><path id="SvgjsPath3735" d="M79.788 85.588c-0.869 3.192-4.162 5.073-7.361 4.196 -3.197-0.876-5.084-4.178-4.214-7.371 0.869-3.195 4.168-5.076 7.365-4.198C78.772 79.09 80.659 82.392 79.788 85.588z" fill="#66724e" stroke="#36441a" stroke-width="0.5" opacity="1"></path><path id="SvgjsPath3736" d="M78.855 85.662c-0.849 2.452-3.407 3.881-5.899 3.199 -2.3-0.631-3.752-2.838-3.563-5.171 0.853-0.067 1.787-0.087 2.756-0.04 -0.01 0.033-0.027 0.062-0.036 0.096 -0.306 1.125 0.407 2.305 1.592 2.63 1.189 0.326 2.401-0.326 2.707-1.451 0.039-0.147 0.06-0.294 0.065-0.439C77.29 84.782 78.088 85.165 78.855 85.662z" fill="#788165" stroke-width="none" opacity="1"></path><path id="SvgjsPath3737" d="M74.813 82.21c-1.203-0.344-2.429 0.342-2.739 1.54 -0.311 1.191 0.412 2.438 1.614 2.783 1.204 0.345 2.43-0.342 2.741-1.534C76.742 83.801 76.016 82.555 74.813 82.21zM75.075 86.442c-0.5 0.156-1.017-0.051-1.154-0.462 -0.133-0.411 0.163-0.867 0.667-1.019 0.503-0.156 1.019 0.051 1.157 0.459C75.881 85.831 75.582 86.287 75.075 86.442z" fill="#000000" stroke-width="none" opacity="0.9"></path><path id="SvgjsPath3738" d="M70.811 87.159c-0.37 0.222-0.922 0.023-1.238-0.447 -0.316-0.466-0.269-1.024 0.102-1.247 0.368-0.219 0.925-0.021 1.239 0.446C71.226 86.378 71.181 86.938 70.811 87.159z" fill="#ffffff" stroke-width="none" opacity="0.6"></path><path id="SvgjsPath3739" d="M78.71 83.74c-0.846 0.507-2.117 0.051-2.837-1.02 -0.72-1.072-0.612-2.352 0.234-2.857 0.844-0.509 2.118-0.053 2.834 1.019C79.66 81.954 79.556 83.232 78.71 83.74z" fill="#ffffff" stroke-width="none" opacity="0.8"></path></g></g></g><g id="svga-group-eyesfront-left"><path id="SvgjsPath3653" d="M53.729 84.098c-0.382 3.304 9.854 22.004 20.071 22.004s19.5-5.292 19.5-22.003c0-17.789-9.283-22.001-19.5-22.001S55.626 67.704 53.729 84.098zM60.8 85.053l-0.1-4.149c1.328-3.949 19.541-4.352 25.9 1.784 1.396 3.231-0.409 5.477-3.529 6.438 -3.293-0.784-4.969 1.059-9.809 1.166 -8.057 0.177-9.938-0.618-11.199-2.638C61.54 86.816 61.04 85.726 60.8 85.053z" fill="#e9b995" stroke-width="none" opacity="1"></path><path id="SvgjsPath3654" d="M59.698 82.412c0.023 7.534 7.646 13.604 17.038 13.566 9.389-0.043 16.985-6.179 16.961-13.713 -0.023-7.533-7.647-13.605-17.04-13.566C67.265 68.743 59.673 74.878 59.698 82.412zM60.8 85.053l-0.1-4.149c1.328-3.949 19.541-4.352 25.9 1.784 1.396 3.231-0.409 5.477-3.529 6.438 -3.293-0.784-4.969 1.059-9.809 1.166 -8.057 0.177-9.938-0.618-11.199-2.638C61.54 86.816 61.04 85.726 60.8 85.053z" fill="url(#SvgjsRadialGradient3655)" opacity="1"></path><path id="SvgjsPath3659" d="M62.063 87.654c-0.523-0.837-1.023-1.928-1.264-2.601l-0.1-4.149c1.328-3.949 19.541-4.352 25.9 1.784 1.396 3.231-0.409 5.477-3.529 6.438 -3.293-0.784-4.969 1.059-9.809 1.166C65.206 90.469 63.324 89.673 62.063 87.654z" fill="url(#SvgjsRadialGradient3660)" opacity="1"></path><path id="SvgjsPath3663" d="M89.465 81.193c-9.617-5.761-16.701-6.128-28.117-5.394C70.877 74.298 81.852 75.387 89.465 81.193z" fill="#bb7440" stroke-width="none" opacity="1"></path><path id="SvgjsPath3664" d="M88.23 85.283c-3.24-8.315-25.943-8.364-27.431-4.181v3.895c-1.021-1.539-1.047-1.633-1.483-3.404l-2.195 0.746c0 0 2.746-3.873 5.299-4.381C84.606 73.539 88.04 83.949 88.23 85.283zM84.743 89.42c-4.625-1.98-5.94 0.378-11.563 0.495 -8.004 0.168-9.567-0.766-11.125-2.476 0.813 2.091 1.375 3.085 10.875 3.027C78.306 90.433 81.243 88.212 84.743 89.42z" fill="#000000" stroke-width="none" opacity="1"></path></g></g><g id="svga-group-eyes-right" ><g id="svga-group-eyesback-right"><path id="SvgjsPath3636" d="M116.529 89.125c3.293-0.784 4.969 1.059 9.809 1.166 8.057 0.177 9.938-0.618 11.199-2.638 0.523-0.837 1.023-1.928 1.264-2.601l0.1-4.149c-1.328-3.949-19.541-4.352-25.9 1.784 -0.287 0.666-0.433 1.287-0.465 1.867 0.19 0.958 0.512 1.878 0.947 2.749C114.189 88.113 115.245 88.729 116.529 89.125z" fill="url(#SvgjsRadialGradient3637)" opacity="1"></path></g><g id="svga-group-eyesiriswrapper-right" transform="translate(-0.25 0.25)"><g id="svga-group-eyesiriscontrol-right" ><g id="svga-group-eyesiris-right" ><path id="SvgjsPath3740" d="M131.788 85.588c-0.869 3.192-4.162 5.073-7.362 4.196 -3.196-0.876-5.084-4.178-4.214-7.371 0.869-3.195 4.169-5.076 7.365-4.198C130.772 79.09 132.658 82.392 131.788 85.588z" fill="#66724e" stroke="#36441a" stroke-width="0.5" opacity="1"></path><path id="SvgjsPath3741" d="M130.855 85.662c-0.849 2.452-3.408 3.881-5.899 3.199 -2.3-0.631-3.753-2.838-3.563-5.171 0.854-0.067 1.787-0.087 2.756-0.04 -0.01 0.033-0.027 0.062-0.036 0.096 -0.306 1.125 0.407 2.305 1.593 2.63 1.189 0.326 2.401-0.326 2.707-1.451 0.038-0.147 0.06-0.294 0.065-0.439C129.29 84.782 130.089 85.165 130.855 85.662z" fill="#788165" stroke-width="none" opacity="1"></path><path id="SvgjsPath3742" d="M126.813 82.21c-1.202-0.344-2.429 0.342-2.738 1.54 -0.312 1.191 0.412 2.438 1.613 2.783 1.204 0.345 2.431-0.342 2.742-1.534C128.741 83.801 128.016 82.555 126.813 82.21zM127.075 86.442c-0.5 0.156-1.018-0.051-1.154-0.462 -0.133-0.411 0.163-0.867 0.667-1.019 0.503-0.156 1.019 0.051 1.157 0.459C127.881 85.831 127.582 86.287 127.075 86.442z" fill="#000000" stroke-width="none" opacity="0.9"></path><path id="SvgjsPath3743" d="M122.812 87.159c-0.37 0.222-0.923 0.023-1.238-0.447 -0.316-0.466-0.27-1.024 0.102-1.247 0.367-0.219 0.926-0.021 1.239 0.446C123.227 86.378 123.181 86.938 122.812 87.159z" fill="#ffffff" stroke-width="none" opacity="0.6"></path><path id="SvgjsPath3744" d="M130.71 83.74c-0.846 0.507-2.116 0.051-2.837-1.02 -0.72-1.072-0.612-2.352 0.234-2.857 0.845-0.509 2.117-0.053 2.834 1.019C131.66 81.954 131.557 83.232 130.71 83.74z" fill="#ffffff" stroke-width="none" opacity="0.8"></path></g></g></g><g id="svga-group-eyesfront-right"><path id="SvgjsPath3674" d="M125.801 62.098c-10.217 0-19.5 4.212-19.5 22.001 0 16.711 9.283 22.003 19.5 22.003s19.891-18.032 20.07-22.004C146.617 67.611 136.018 62.098 125.801 62.098zM137.537 87.654c-1.261 2.02-3.143 2.815-11.199 2.638 -4.84-0.107-6.516-1.95-9.809-1.166 -3.12-0.961-4.925-3.207-3.529-6.438 6.359-6.136 24.572-5.733 25.9-1.784l-0.1 4.149C138.561 85.726 138.061 86.816 137.537 87.654z" fill="#e9b995" stroke-width="none" opacity="1"></path><path id="SvgjsPath3675" d="M122.943 68.699c-9.393-0.04-17.016 6.033-17.039 13.566 -0.025 7.535 7.572 13.67 16.961 13.713 9.391 0.037 17.014-6.033 17.037-13.566C139.928 74.878 132.336 68.743 122.943 68.699zM137.537 87.654c-1.261 2.02-3.143 2.815-11.199 2.638 -4.84-0.107-6.516-1.95-9.809-1.166 -3.12-0.961-4.925-3.207-3.529-6.438 6.359-6.136 24.572-5.733 25.9-1.784l-0.1 4.149C138.561 85.726 138.061 86.816 137.537 87.654z" fill="url(#SvgjsRadialGradient3676)" opacity="1"></path><path id="SvgjsPath3680" d="M137.537 87.654c0.523-0.837 1.023-1.928 1.264-2.601l0.1-4.149c-1.328-3.949-19.541-4.352-25.9 1.784 -1.396 3.231 0.409 5.477 3.529 6.438 3.293-0.784 4.969 1.059 9.809 1.166C134.395 90.469 136.276 89.673 137.537 87.654z" fill="url(#SvgjsRadialGradient3681)" opacity="1"></path><path id="SvgjsPath3684" d="M110.136 81.193c9.617-5.761 16.701-6.128 28.117-5.394C128.724 74.298 117.749 75.387 110.136 81.193z" fill="#bb7440" stroke-width="none" opacity="1"></path><path id="SvgjsPath3685" d="M137.181 77.957c2.553 0.508 5.299 4.381 5.299 4.381l-2.195-0.746c-0.437 1.771-0.463 1.865-1.483 3.404v-3.895c-1.487-4.183-24.19-4.134-27.431 4.181C111.561 83.949 114.994 73.539 137.181 77.957zM126.67 90.467c9.5 0.058 10.063-0.937 10.875-3.027 -1.558 1.71-3.121 2.644-11.125 2.476 -5.622-0.117-6.938-2.476-11.563-0.495C118.357 88.212 121.295 90.433 126.67 90.467z" fill="#000000" stroke-width="none" opacity="1"></path></g></g><g id="svga-group-facehighlight-single" ><path id="SvgjsPath2885" d="M141 113.974c0.035 22.622-18.292 40.994-40.938 41.025 -22.642 0.037-41.028-18.273-41.063-40.9 -0.035-22.62 18.292-41.064 40.937-41.1C122.579 72.964 140.967 91.349 141 113.974z" fill="url(#SvgjsRadialGradient2886)" opacity="1"></path><path id="SvgjsPath2889" d="M137.5 53.999c0 20.711-16.789 37.5-37.499 37.5 -20.711 0-37.501-16.789-37.501-37.5s16.79-37.5 37.501-37.5C120.711 16.499 137.5 33.288 137.5 53.999z" fill="url(#SvgjsRadialGradient2890)" opacity="1"></path></g><g id="svga-group-eyebrows-left" ><path id="SvgjsPath3427" d="M54 74.189c9.954-9.974 16.761-5.915 30.589-3.264 0.845 0.162 6.32 1.539 5.31 3.469 -0.483 0.924-2.036 0.814-2.903 0.798C73.308 74.936 66.652 65.197 54 74.189z" fill="#2a232b" stroke-width="none" opacity="1"></path></g><g id="svga-group-eyebrows-right" ><path id="SvgjsPath3428" d="M146 74.189c-9.953-9.974-16.761-5.915-30.589-3.264 -0.846 0.162-6.32 1.539-5.311 3.469 0.483 0.924 2.036 0.814 2.903 0.798C126.691 74.936 133.348 65.197 146 74.189z" fill="#2a232b" stroke-width="none" opacity="1"></path></g><g id="svga-group-nose-single" ><path id="SvgjsPath3556" d="M100.729 120.838c-0.354 0.161-1.185 0.161-1.448-0.103 0 0-6.296-2.153-5.498-4.215 1.264-3.262 12.727-0.761 12.717 0C106.475 118.462 100.729 120.838 100.729 120.838z" fill="#daa075" stroke-width="none" opacity="1"></path><path id="SvgjsPath3557" d="M92.215 113.609c0 0 5.448-18.624 6.008-22.61 1.063 6.47-1.503 20.873-1.774 23.812 -0.329 3.569 3.455 5.688 3.455 5.688 0.293 0.371-0.061 0.602-0.516 0.456l-6.631-2.559C91.186 117.061 91.186 115.79 92.215 113.609zM103.176 116.911c0.915 0.207 1.106 0.576 1.035 0.957 -0.069 0.385-0.462 0.911-1.288 0.43 -0.907-0.526-2.619-0.767-2.619-0.767S102.261 116.701 103.176 116.911z" fill="#bb7440" stroke-width="none" opacity="1"></path></g><g id="svga-group-beardwrap" ><g id="svga-group-beard-single" ><path id="SvgjsPath3696" d="M100,18.13L100,18.13L100,18.13L100,18.13z" fill="#2a232b" stroke-width="none" opacity="1"></path></g></g><g id="svga-group-mustache-single" ><path id="SvgjsPath3457" d="M100,18.13L100,18.13L100,18.13L100,18.13z" fill="#2a232b" stroke-width="none" opacity="1"></path></g><g id="svga-group-hair-front" ><path id="SvgjsPath3728" d="M57.802 28.734c9.237-8.79 44.55-0.761 55.197 0.239 10.142 0.782 23.526-30.339 43.604 49.479 -0.045 3.839-1.289 10.633-2.796 15.468 -0.145-0.101-0.286-0.208-0.431-0.306 0 0 0.518 3.257-6.059 14.39 0.349-8.073-1.212-13.893-2.492-21.414 -15.709-19.987-30.389-24.674-41.56-28.155 7.5 8.755 14.919 16.79 18.165 25.564 -13.646-9.576-32.408-28.884-32.408-28.884S90.426 59.819 116.709 84C105.766 81.32 85.363 70.32 71.072 49.048c-2.746 4.5 12.4 30.794 12.827 31.801 -7.663-6.086-18.079-14.636-20.755-24.62 0 0-1.571 4.043-2.662 8.635 -2.878 12.162-2.904 27.281-3.429 31.125 -1.665-8.721-1.925-18.482-1.922-18.355 -3.905 17.893-0.419 30.394-0.352 34.724 -5.198-10.435-10.604-22.897-12.177-34.534C42.604 77.824 54.221 27.134 57.802 28.734z" fill="#a68469" stroke-width="none" opacity="0.1" stroke="none"></path><path id="SvgjsPath3729" d="M29.382 67.866c0.08-5.39 1.12-13.92 2.921-18.78 -3.28 3.39-7.41 7.39-10.78 9.5 4.46-3.86 5.841-7.16 15.921-28.3 6.189-12.98 10.287-26.75 22.378-28.37 4.079-0.56 8.05 0.99 11.779 2.59 9.61-8.79 21.59-12.331 32.671-11.331 33.879 2.51 42.916 24.391 61.036 28.771 -2.84 0.83-7.616-0.468-10.336-1.748 3.75 5.06 2.422 4.531 10.692 12.801 3.369 3.34 6.482 7.444 10.543 9.854 -5.449-0.681-8.313-4.834-16.282-9.104 1.149 1.84 5.249 8.094 11.929 14.494 2.87 2.74 7.6 6.584 10.898 8.914 -2.409-0.96-9.488-3.726-15.607-9.152 3.169 4.531 12.262 12.94 8.145 29.881 -0.832-7.406 0.002-16.415-7.049-20.895 0.784 3.301 3.814 10.222 1.604 17.708H158.91c-0.047 3.839-1.342 10.934-2.908 15.769 -0.151-0.101-0.297-0.208-0.449-0.306 0 0-0.503 3.257-7.344 14.39 0.363-8.073-0.222-13.893-1.553-21.414 -16.346-19.987-31.619-24.674-43.241-28.155 7.804 8.755 13.813 18.837 17.192 27.612 -11.046-11.66-33.834-29.767-33.834-29.767s0.364 4.866 27.712 29.046c-9.449-5.795-29.698-15.006-44.566-36.278 -2.858 4.5 10.819 30.794 11.264 31.801 -7.974-6.086-14.646-16.636-17.435-26.62 0 0-3.716 6.043-4.847 10.635 -2.995 12.162-1.984 22.281-2.528 26.125 -1.732-8.721-3.042-13.482-3.039-13.355 -4.066 17.893 0.604 32.394 0.672 36.724C48.6 100.471 41.934 85.908 40.297 74.271H28.7C29.369 69.944 28.873 69.932 29.382 67.866z" fill="#a68469" stroke-width="none" opacity="1" stroke="none"></path><path id="SvgjsPath3730" d="M22.764 37.286c3.811-0.17 5.876 0.099 10.356-0.261 0.67-1.53 2.738-5.55 3.438-7.07C33.059 33.055 25.794 36.976 22.764 37.286z" fill="#875d3b" stroke-width="none" opacity="1" stroke="none"></path><path id="SvgjsPath3731" d="M120 6c16.027-2.29 30.9 14.922 44.42 16.002 -2.873 0.59-7.386-1.022-9.989-2.247 3.75 5.06 2.74 5.09 11.011 13.36 3.369 3.34 5.77 6.92 9.83 9.33 -4.352-0.722-7.869-4.955-15.656-9.179C150.467 19.744 136.495 7.833 120 6zM63.748 50.777c0 0-3.716 6.043-4.847 10.635 -2.995 12.162-1.984 22.281-2.528 26.125 -1.732-8.721-3.042-13.482-3.039-13.355 -0.098 0.428-0.185 0.851-0.272 1.275 -3.569 17.303 0.878 31.222 0.944 35.449C48.6 100.471 41.934 86.008 40.297 74.372H28.7c0.669-4.328 0.173-4.44 0.682-6.505 0.08-5.39 1.12-13.92 2.921-18.78 -3.28 3.39-7.41 7.39-10.78 9.5 4.384-3.794 5.799-7.06 15.417-27.242C39.903 26.734 43.257 22.367 47 18c-7 9-11 20-12 31 2-6 8.079-10.064 12.204-14.833C42.858 40.958 39.721 47.555 38 57c1.263-2.166 3.05-3.376 4.352-5 -2.063 6.007-1.46 9.452-0.544 14.033C42.71 58.906 44.209 47.331 48 41c0 11-3.411 21.569 1.005 33.277 -0.041-8.667 3.242-16.555 5.526-22.481 -0.454 2.152-0.105 7.455 0.016 9.648 1.278-6.668 2.146-13.21 6.033-18.583 -1.734-9.968-4.468-20.679-0.784-23.305 -5.987 10.398 12.487 19.472 11.935 19.03 10.333 5.74 16.882 6.44 22.24 7.796 -3.495-2.813-5.311-6.313-8.84-9.096 10 3.45 23.963 14.121 31.086 18.481 1.902 2.784 2.074 3.492 2.641 4.833 -4.081-1.928-9.18-3.742-15.442-5.618 14.409 16.165 11.53 12.905 17.192 27.612 -9.815-10.361-9.8-10.658-32.423-28.645 2.733 3.566 9.971 13.486 26.301 27.924 -3.69-2.263-31.135-17.061-44.566-36.278 -0.641 5.223 0.076 8.654 11.264 31.801C79.136 76.769 71.168 69.641 63.748 50.777zM118.857 60.601c8.503 4.017 17.955 10.501 27.799 22.537 1.331 7.521 1.916 13.341 1.553 21.414 1.527-2.485 2.724-4.558 3.684-6.309 3.342-6.095 3.66-8.081 3.66-8.081 0.152 0.098 0.298 0.205 0.449 0.306 1.566-4.835 2.861-11.629 2.908-15.468h10.733c2.212-7.485-1.049-15.243-1.833-18.544 7.051 4.48 7.24 12.74 7.57 20.16 3.37-16.67-5.95-24.64-8.9-29.41 6.17 4.79 13.061 8.53 15.471 9.49 -3.301-2.33-7.41-5.47-10.28-8.21 -3.639-3.486-6.618-7.18-8.769-10.124C158.216 35.96 154.726 32.363 150 30c7.927 5.284 10.424 13.671 12.956 21.745 -1.214-1.753-3.177-2.936-4.23-4.512 1.251 3.286 3.089 6.694 2.274 10.767 -5-7-7-17-15-23 8.079 8.079 8.639 29.358 8.605 33.148C146.453 29.071 111.941-7.698 77 6c35-11 65 26 69 58 -7-8-9-18-19-23 5 5 8 13 11 19 -11-13-20-26-35-35 7 8 16 15 21 25 3 3 4 7 6 10 -7-7-15.796-14.161-24.869-16.816C115.319 51.958 118.141 58.904 118.857 60.601z" fill="#976f50" stroke-width="none" opacity="1" stroke="none"></path><path id="SvgjsPath3732" d="M117.766 5.829c8.292-0.029 31.523 6.494 43.094 29.199C148.464 17.819 135.714 9.892 117.766 5.829zM137.845 38.708C124.893 11.58 100.687 3.229 87.714 4.067 97.087 3.465 123.506 13.067 137.845 38.708zM73.181 14.559C72.572 9.286 65.426 3.87 57.615 6.905c-0.671 0.261-1.261 0.737-1.929 0.979C64.214 4.803 72.008 9.383 73.181 14.559zM70.78 17.966c-2.271-3.246-5.344-6.239-9.309-7.198C49.418 7.854 40.4 25.7 38.314 33.687c0.263-1.003 10.596-25.068 23.497-22.066C65.532 12.47 68.414 15.113 70.78 17.966zM69.574 20.271c-1.129 13.933 30.875 23.767 37.895 29.705C94.975 39.407 69.766 32.882 69.574 20.271zM124.793 51.149c-2.651-4.433-13.662-22.247-31.359-32.846 -10.977-6.574-15.238-2.604-17.326-1.636C90.316 10.093 116.346 39.44 124.793 51.149z" fill="#875d3b" stroke-width="none" opacity="1" stroke="none"></path><path id="SvgjsPath3733" d="M154.605 30.218c0 0-12.998-14.019-32.379-20.881C136.712 12.957 145.32 20.083 154.605 30.218zM122.58 10.545c8.373 2.862 22.848 18.934 24.674 22.069C142.53 24.503 131.43 12.888 122.58 10.545zM96.203 7.936c16.427 3.769 31.383 22.259 31.383 22.259C120.613 19.403 109.143 9.004 96.203 7.936zM82.027 17.556c7.952 2.046 25.885 16.866 26.805 18.162C106.244 32.075 90.721 18.78 82.027 17.556zM76.314 19.112c8.738 1.131 15.985 8.446 17.066 9.925C88.838 22.824 84.179 19.303 76.314 19.112zM75.442 21.879c8.537 8.845 21.252 11.429 25.864 17.449C94.935 31.012 83.235 29.092 75.442 21.879zM85.865 42.83c-11.211-6.084-18.966-11.368-20.703-12.851 -1.836-1.565-6.52-5.33-3.095-9.151 -2.542 1.67-2.01 5.382 1.396 8.925C67.167 33.607 84.863 42.83 85.865 42.83 84.895 42.303 85.864 42.83 85.865 42.83zM93.761 46.37c-8.66-2.08-17.527-5.034-24.96-10.046 -5.172-3.487-12.865-11.624-8.86-16.402 1.146-1.371 3.559-2.013 5.297-1.993 -1.732-0.021-3.829 0.4-5.168 1.556 -3.872 3.344 0.268 11.895 6.736 16.54C74.633 41.646 84.462 44.373 93.761 46.37zM94.196 11.99c1.66 0.332 3.306 0.552 4.901 1.161 13.539 5.162 26.441 21.077 26.441 21.077C118.564 23.811 106.82 13.181 94.196 11.99zM95.438 16.421c15.557 5.988 32.561 25.947 33.561 26.663C121.432 31.611 108.664 19.74 95.438 16.421zM56.114 18.851c-10.322-2.044-15.184 15.403-15.779 16.404C43.838 28.076 49.19 18.188 56.114 18.851zM56.22 30.75c-8.761 8.218-6.864 18.622-6.717 23.478C49.338 45.406 51.606 36.237 56.22 30.75z" fill="#b59a85" stroke-width="none" opacity="1" stroke="none"></path><path id="SvgjsPath3734" d="M31.491 50.465c-3.98 10.99-2.87 22.38-2.931 23.38 -0.079 0.171-0.238 0.529-0.317 0.703 1.05-0.224 0.815-0.006 1.079-0.006 2.013-4.338 4.543-10.008 11.318-19.136 -4.29 5.17-8.16 10.6-11.21 16.62 1.811-11.55 9.17-21.13 10.021-22.35 -4.04 5.13-7.82 10.61-9.87 17.39 0.08-5.39 1.319-13.72 3.12-18.58 -3.28 3.39-7.41 7.69-10.78 9.8 4.46-3.86 6.04-6.86 16.12-28 6.189-12.98 9.689-26.55 21.78-28.17 4.079-0.56 8.05 0.79 11.779 2.39 9.61-8.79 21.59-11.83 32.671-10.83 33.879 2.51 42.409 23.86 60.529 28.24 -2.84 0.83-7.65-0.88-10.37-2.16 3.75 5.06 2.74 5.09 11.011 13.36 3.369 3.34 5.77 6.92 9.83 9.33 -4.4-0.73-7.94-5.05-15.91-9.32 1.149 1.84 5.629 8.96 12.31 15.36 2.87 2.74 6.979 5.88 10.28 8.21 -2.41-0.96-9.301-4.7-15.471-9.49 2.95 4.77 12.271 12.74 8.9 29.41 -0.33-7.42-0.52-15.68-7.57-20.16 0.784 3.301 4.045 11.059 1.833 18.544h0.317 0.875c2.142-6.938-0.861-13.751-2.085-17.224 6.409 5.8 6.31 18.31 5.67 24.379 2.521-6.85 3.479-13.449 1.46-20.489 -1.13-3.96-3.5-7.46-5.96-10.71 -0.17-0.23-0.351-0.46-0.521-0.69 4.69 3.76 10.521 7.08 16.11 8.14 0 0-17.069-12.22-24.31-23.26 1.8 1.29 4.25 3.34 6.64 4.95 3.45 2.35 6.17 3.54 10.14 3.04 -4.72-2.17-7.83-6.79-11.149-10.25 -7.37-7.74-4.36-3.42-10.56-11.66 5 2.04 7.649 1.84 10.67 0.75 -1.701-0.4-3.48-0.87-5.08-1.49 -13.41-5.19-28.451-28.98-60.24-29.1 -10.9-0.05-22.641 4.17-30.32 12.49 -1.33-0.61-2.68-1.13-4.04-1.57 -17.26-5.55-23.17 10.32-30.74 26.41 -2.88 2.39-8.47 7.94-16.029 8.68 3.67 0.26 7.54 0.58 12.06 0.2 -6.62 15.06-6.979 16.7-15.57 23.75C24.331 58.795 26.661 55.875 31.491 50.465zM35.961 30.755c-0.7 1.52-2.37 4.34-3.04 5.87 -4.48 0.36-5.55 0.39-9.36 0.56C26.591 36.875 32.461 33.855 35.961 30.755zM39.938 70.539c0 1.85 2.122 11.566 4.412 17.556 -1.18-6.81-1.41-13.92-1.229-20.82 0.18-7.13 1.3-14.12 3.34-20.95 -4.72 19.62-2.17 45.13 7.229 63.271 -1.909-9.51-3.02-19.14-1.81-28.82 0.28-2.24 0.66-4.46 1.16-6.66 0 0-0.92-8.37 1.49-22.32 -1.641 11.57-0.5 22.83 1.76 34.21 -0.22-8.28 0.2-16.63 2.32-24.67 1.159-4.4 2.439-5.78 4.5-10.88 -1.131-4.1-1.711-8.32-2.11-12.54 1.93 12.83 5.399 20.15 12.35 30.55 2.061 3.07 4.2 5.89 7.16 8.15 -2.08-3.64-8.96-19.1-9.37-20.14 -1.37-3.47-2.2-7.06-1.569-10.78 -2.04-3.2-3.83-6.56-5.46-9.99 5.229 9.7 12.039 18.21 20.34 25.49 4.29 3.77 8.859 7.25 13.56 10.48 4.841 3.33 10.04 5.93 15.03 8.99 -6.52-5.46-12.99-11.4-17.41-16.21 -2.68-2.92-5.81-5.87-7.97-9.21 -2.15-3.33-3.08-7.14-4.78-10.7 1.69 2.91 2.9 6.02 4.15 8.13 0.31 0.52 11.819 9.16 16.89 13.98 6.44 6.11 9.75 8.16 15.851 14.6 -2.791-6.18-3.521-9.17-11.131-19.26 -5.02-6.66-7.09-7.03-13.779-17.45 1.729 2.37 3.479 4.67 5.47 6.83 1.04 1.13 2.1 2.22 3.17 3.32 6.21 1.86 11.96 2.92 21.659 8.94 16.671 10.35 20.201 18.04 26.971 24.64 -1.2-4.17-4.88-11.15-8.18-16.9 -3.01-5.25-6.32-10.68-9.99-15.14 4.641 4.16 8.07 9.47 11.13 14.84 3.22 5.68 6.81 11.79 7.899 18.31 -2.109-1.62-4.01-3.43-5.869-5.34 1.119 6.33 1.73 12.93 1.439 19.36 9.016-14.682 12.535-35.524 9.849-48.787 6.943 27.12-5.726 44.18-11.658 54.876 0.46-6.54-0.2-21.98-0.71-26.4 -2.21-2.759-17.912-19.588-41.29-27.14 4.12 4.12 7.729 8.4 10.58 13.51 2.61 4.7 5.1 9.62 6.6 15.03 -5.3-5.3-11.079-10.12-16.739-15.01 -5.82-5.03-11.44-10.28-17.24-15.33 1.569 2.35 3.42 4.57 14.779 15.65 5.99 5.85 15.33 14.29 15.53 14.51 -1-0.38-17.76-9.09-25.62-15.05 -8.22-6.23-17.02-14.11-22.58-22.81 -0.489 6.01 3.061 12.45 4.9 16.33 2 4.21 4.979 11.6 8.229 16.96 -5.04-2.96-8.85-7.15-11.92-12.14 -3.189-5.18-6.06-10.19-7.84-16.03 -1.5 2.98-3.14 5.96-3.84 9.25 -0.74 3.46-1.229 6.95-1.57 10.47 -0.67 7.07-1.43 14.33-1.02 21.44 -1.74-5.47-3.07-10.94-3.64-16.67 -1.7 9.52-0.091 23.48 1.779 37.28 -5.149-7.021-9.5-17.16-11.99-26.3C41.511 81.005 39.658 74.499 39.938 70.539z" fill="#784b28" stroke-width="none" opacity="1" stroke="none"></path></g><g id="svga-group-glasses-single" ><path id="SvgjsPath3749" d="M100,18.13L100,18.13L100,18.13L100,18.13z" fill="#26120b" stroke-width="none" opacity="1"></path></g></g></g><rect id="SvgjsRect1036" width="200" height="15" x="0" y="185" fill="#ecf0f1" opacity="0.5" style="display:none;"></rect><text id="SvgjsText1037" font-family="&quot;Roboto&quot;, &quot;Helvetica Neue&quot;, Helvetica, Arial, sans-serif" style="font-size:0.84em;font-family:&quot;Roboto&quot;, &quot;Helvetica Neue&quot;, Helvetica, Arial, sans-serif;text-anchor:middle;font-weight:400;display:none;" font-size="0.84em" text-anchor="middle" font-weight="400" fill="#000000" x="100" y="185"><tspan id="SvgjsTspan1038" dy="1.2em" x="100" style="font-size:0.84em;font-family:&quot;Roboto&quot;, &quot;Helvetica Neue&quot;, Helvetica, Arial, sans-serif;text-anchor:middle;font-weight:400;">Creato con creaavatar.it</tspan></text></g><defs id="SvgjsDefs1001"><radialGradient id="SvgjsRadialGradient2886" cx="100" cy="114" r="41" gradientUnits="userSpaceOnUse" class="svga-on-canvas-facehighlight-gradient-single-0"><stop id="SvgjsStop2887" stop-opacity="0.5" stop-color="#f8d3b8" offset="0" ></stop><stop id="SvgjsStop2888" stop-opacity="0" stop-color="#e9b995" offset="0.9" ></stop></radialGradient><radialGradient id="SvgjsRadialGradient2890" cx="100" cy="54" r="37" gradientUnits="userSpaceOnUse" class="svga-on-canvas-facehighlight-gradient-single-1"><stop id="SvgjsStop2891" stop-opacity="0.5" stop-color="#f8d3b8" offset="0" ></stop><stop id="SvgjsStop2892" stop-opacity="0" stop-color="#e9b995" offset="0.9" ></stop></radialGradient><radialGradient id="SvgjsRadialGradient3373" cx="-568.659" cy="-521.042" r="59.751" gradientTransform="matrix(0.096 -0.0248 0.0245 0.0961 141.2814 119.9893)" gradientUnits="userSpaceOnUse" class="svga-on-canvas-eyesiris-gradient-left-1"><stop id="SvgjsStop3374" stop-opacity="1" stop-color="#ffffff" offset="0" ></stop><stop id="SvgjsStop3375" stop-opacity="0" stop-color="#ffffff" offset="1" ></stop></radialGradient><radialGradient id="SvgjsRadialGradient3377" cx="-582.838" cy="-519.099" r="59.745" gradientTransform="matrix(0.0991 8.856319e-004 -0.0011 0.0991 131.1134 135.9855)" gradientUnits="userSpaceOnUse" class="svga-on-canvas-eyesiris-gradient-left-2"><stop id="SvgjsStop3378" stop-opacity="1" stop-color="#ffffff" offset="0" ></stop><stop id="SvgjsStop3379" stop-opacity="0" stop-color="#ffffff" offset="1" ></stop></radialGradient><linearGradient id="SvgjsLinearGradient3383" x1="122.67" y1="88.268" x2="123.606" y2="87.152" gradientTransform="matrix(1 0 0 1 -52 0)" gradientUnits="userSpaceOnUse" class="svga-on-canvas-eyesiris-gradient-left-5"><stop id="SvgjsStop3384" stop-opacity="1" stop-color="#ffffff" offset="0" ></stop><stop id="SvgjsStop3385" stop-opacity="0" stop-color="#ffffff" offset="1" ></stop></linearGradient><linearGradient id="SvgjsLinearGradient3387" x1="127.212" y1="82.296" x2="126.463" y2="83.189" gradientTransform="matrix(1 0 0 1 -52 0)" gradientUnits="userSpaceOnUse" class="svga-on-canvas-eyesiris-gradient-left-6"><stop id="SvgjsStop3388" stop-opacity="1" stop-color="#ffffff" offset="0" ></stop><stop id="SvgjsStop3389" stop-opacity="0" stop-color="#ffffff" offset="1" ></stop></linearGradient><linearGradient id="SvgjsLinearGradient3391" x1="129.636" y1="79.822" x2="127.91" y2="81.879" gradientTransform="matrix(1 0 0 1 -52 0)" gradientUnits="userSpaceOnUse" class="svga-on-canvas-eyesiris-gradient-left-7"><stop id="SvgjsStop3392" stop-opacity="1" stop-color="#ffffff" offset="0" ></stop><stop id="SvgjsStop3393" stop-opacity="0" stop-color="#ffffff" offset="1" ></stop></linearGradient><radialGradient id="SvgjsRadialGradient3396" cx="-568.654" cy="-521.042" r="59.752" gradientTransform="matrix(0.096 -0.0248 0.0245 0.0961 193.2804 119.9894)" gradientUnits="userSpaceOnUse" class="svga-on-canvas-eyesiris-gradient-right-1"><stop id="SvgjsStop3397" stop-opacity="1" stop-color="#ffffff" offset="0" ></stop><stop id="SvgjsStop3398" stop-opacity="0" stop-color="#ffffff" offset="1" ></stop></radialGradient><radialGradient id="SvgjsRadialGradient3400" cx="-582.833" cy="-519.102" r="59.747" gradientTransform="matrix(0.0991 8.856319e-004 -0.0011 0.0991 183.1126 135.9856)" gradientUnits="userSpaceOnUse" class="svga-on-canvas-eyesiris-gradient-right-2"><stop id="SvgjsStop3401" stop-opacity="1" stop-color="#ffffff" offset="0" ></stop><stop id="SvgjsStop3402" stop-opacity="0" stop-color="#ffffff" offset="1" ></stop></radialGradient><linearGradient id="SvgjsLinearGradient3406" x1="122.67" y1="88.268" x2="123.606" y2="87.152" gradientUnits="userSpaceOnUse" class="svga-on-canvas-eyesiris-gradient-right-5"><stop id="SvgjsStop3407" stop-opacity="1" stop-color="#ffffff" offset="0" ></stop><stop id="SvgjsStop3408" stop-opacity="0" stop-color="#ffffff" offset="1" ></stop></linearGradient><linearGradient id="SvgjsLinearGradient3410" x1="127.212" y1="82.296" x2="126.463" y2="83.189" gradientUnits="userSpaceOnUse" class="svga-on-canvas-eyesiris-gradient-right-6"><stop id="SvgjsStop3411" stop-opacity="1" stop-color="#ffffff" offset="0" ></stop><stop id="SvgjsStop3412" stop-opacity="0" stop-color="#ffffff" offset="1" ></stop></linearGradient><linearGradient id="SvgjsLinearGradient3414" x1="129.636" y1="79.822" x2="127.91" y2="81.879" gradientUnits="userSpaceOnUse" class="svga-on-canvas-eyesiris-gradient-right-7"><stop id="SvgjsStop3415" stop-opacity="1" stop-color="#ffffff" offset="0" ></stop><stop id="SvgjsStop3416" stop-opacity="0" stop-color="#ffffff" offset="1" ></stop></linearGradient><linearGradient id="SvgjsLinearGradient3545" x1="100" y1="171" x2="100" y2="128" gradientUnits="userSpaceOnUse" class="svga-on-canvas-chinshadow-gradient-single-0"><stop id="SvgjsStop3546" stop-opacity="0.8" stop-color="#daa075" offset="0" ></stop><stop id="SvgjsStop3547" stop-opacity="1" stop-color="#bb7440" offset="0.7" ></stop></linearGradient><linearGradient id="SvgjsLinearGradient3549" x1="100" y1="142" x2="100" y2="139" gradientUnits="userSpaceOnUse" class="svga-on-canvas-mouth-gradient-single-0"><stop id="SvgjsStop3550" stop-opacity="1" stop-color="#e1ac85" offset="0.1" ></stop><stop id="SvgjsStop3551" stop-opacity="1" stop-color="#daa075" offset="1" ></stop></linearGradient><radialGradient id="SvgjsRadialGradient3629" cx="125.379" cy="82.93" r="12.84" gradientTransform="matrix(-1.0592 4.000000e-004 -4.000000e-004 0.9318 206.5112 5.1767)" gradientUnits="userSpaceOnUse" class="svga-on-canvas-eyesback-gradient-left-0"><stop id="SvgjsStop3630" stop-opacity="1" stop-color="#ffffff" offset="0" ></stop><stop id="SvgjsStop3631" stop-opacity="1" stop-color="#fdfefe" offset="0.544" ></stop><stop id="SvgjsStop3632" stop-opacity="1" stop-color="#f6f8f9" offset="0.74" ></stop><stop id="SvgjsStop3633" stop-opacity="1" stop-color="#eaeff2" offset="0.879" ></stop><stop id="SvgjsStop3634" stop-opacity="1" stop-color="#d9e3e8" offset="0.992" ></stop><stop id="SvgjsStop3635" stop-opacity="1" stop-color="#d8e2e7" offset="1" ></stop></radialGradient><radialGradient id="SvgjsRadialGradient3637" cx="125.001" cy="82.93" r="12.841" gradientTransform="matrix(1.0592 4.000000e-004 4.000000e-004 0.9318 -6.5112 5.1767)" gradientUnits="userSpaceOnUse" class="svga-on-canvas-eyesback-gradient-right-0"><stop id="SvgjsStop3638" stop-opacity="1" stop-color="#ffffff" offset="0" ></stop><stop id="SvgjsStop3639" stop-opacity="1" stop-color="#fdfefe" offset="0.544" ></stop><stop id="SvgjsStop3640" stop-opacity="1" stop-color="#f6f8f9" offset="0.74" ></stop><stop id="SvgjsStop3641" stop-opacity="1" stop-color="#eaeff2" offset="0.879" ></stop><stop id="SvgjsStop3642" stop-opacity="1" stop-color="#d9e3e8" offset="0.992" ></stop><stop id="SvgjsStop3643" stop-opacity="1" stop-color="#d8e2e7" offset="1" ></stop></radialGradient><radialGradient id="SvgjsRadialGradient3645" cx="125.379" cy="82.93" r="12.84" gradientTransform="matrix(-1.0592 4.000000e-004 -4.000000e-004 0.9318 206.5112 5.1767)" gradientUnits="userSpaceOnUse" class="svga-on-canvas-eyesfront-gradient-left-0"><stop id="SvgjsStop3646" stop-opacity="1" stop-color="#ffffff" offset="0" ></stop><stop id="SvgjsStop3647" stop-opacity="1" stop-color="#fdfefe" offset="0.544" ></stop><stop id="SvgjsStop3648" stop-opacity="1" stop-color="#f6f8f9" offset="0.74" ></stop><stop id="SvgjsStop3649" stop-opacity="1" stop-color="#eaeff2" offset="0.879" ></stop><stop id="SvgjsStop3650" stop-opacity="1" stop-color="#d9e3e8" offset="0.992" ></stop><stop id="SvgjsStop3651" stop-opacity="1" stop-color="#d8e2e7" offset="1" ></stop></radialGradient><radialGradient id="SvgjsRadialGradient3655" cx="123.218" cy="81.096" fx="133.802" fy="77.197" r="17.898" gradientTransform="matrix(0.9998 0.0183 0.0166 -0.7038 -47.7588 136.6255)" gradientUnits="userSpaceOnUse" class="svga-on-canvas-eyesfront-gradient-left-3"><stop id="SvgjsStop3656" stop-opacity="1" stop-color="#daa075" offset="0" ></stop><stop id="SvgjsStop3657" stop-opacity="0.3" stop-color="#daa075" offset="0.7" ></stop><stop id="SvgjsStop3658" stop-opacity="0" stop-color="#e9b995" offset="1" ></stop></radialGradient><radialGradient id="SvgjsRadialGradient3660" cx="79.496" cy="81.496" r="23.208" gradientTransform="matrix(1.0971 -0.0499 0.0576 0.9543 -20.1632 27.912)" gradientUnits="userSpaceOnUse" class="svga-on-canvas-eyesfront-gradient-left-4"><stop id="SvgjsStop3661" stop-opacity="0" stop-color="#000000" offset="0.9" ></stop><stop id="SvgjsStop3662" stop-opacity="0.2" stop-color="#000000" offset="1" ></stop></radialGradient><radialGradient id="SvgjsRadialGradient3666" cx="125.001" cy="82.93" r="12.841" gradientTransform="matrix(1.0592 4.000000e-004 4.000000e-004 0.9318 -6.5112 5.1767)" gradientUnits="userSpaceOnUse" class="svga-on-canvas-eyesfront-gradient-right-0"><stop id="SvgjsStop3667" stop-opacity="1" stop-color="#ffffff" offset="0" ></stop><stop id="SvgjsStop3668" stop-opacity="1" stop-color="#fdfefe" offset="0.544" ></stop><stop id="SvgjsStop3669" stop-opacity="1" stop-color="#f6f8f9" offset="0.74" ></stop><stop id="SvgjsStop3670" stop-opacity="1" stop-color="#eaeff2" offset="0.879" ></stop><stop id="SvgjsStop3671" stop-opacity="1" stop-color="#d9e3e8" offset="0.992" ></stop><stop id="SvgjsStop3672" stop-opacity="1" stop-color="#d8e2e7" offset="1" ></stop></radialGradient><radialGradient id="SvgjsRadialGradient3676" cx="122.818" cy="81.096" fx="133.402" fy="77.197" r="17.898" gradientTransform="matrix(-0.9998 0.0183 -0.0166 -0.7038 246.9601 136.6328)" gradientUnits="userSpaceOnUse" class="svga-on-canvas-eyesfront-gradient-right-3"><stop id="SvgjsStop3677" stop-opacity="1" stop-color="#daa075" offset="0" ></stop><stop id="SvgjsStop3678" stop-opacity="0.3" stop-color="#daa075" offset="0.7" ></stop><stop id="SvgjsStop3679" stop-opacity="0" stop-color="#e9b995" offset="1" ></stop></radialGradient><radialGradient id="SvgjsRadialGradient3681" cx="79.859" cy="81.511" r="23.208" gradientTransform="matrix(-1.0971 -0.0499 -0.0576 0.9543 220.163 27.9157)" gradientUnits="userSpaceOnUse" class="svga-on-canvas-eyesfront-gradient-right-4"><stop id="SvgjsStop3682" stop-opacity="0" stop-color="#000000" offset="0.9" ></stop><stop id="SvgjsStop3683" stop-opacity="0.2" stop-color="#000000" offset="1" ></stop></radialGradient></defs></svg>